<svg xmlns="http://www.w3.org/2000/svg" width="40.9" height="40.9" viewBox="0 -0.017 40.9 40.9"><g data-name="Group 22"><path d="M40.197 39.516h-10.22v-2.794a3.412 3.412 0 0 0 2.726-3.338c0-.089-.04-8.857-3.407-8.857-3.368 0-3.406 8.768-3.406 8.857a3.412 3.412 0 0 0 2.725 3.338v2.794h-5.45v-15.67a.682.682 0 0 0-1.363 0v15.67H2.725V9.538h4.77a.682.682 0 0 0 .68-.681V6.813h6.132a.682.682 0 0 0 0-1.362H7.494a.682.682 0 0 0-.68.68v2.045h-4.77a.682.682 0 0 0-.681.681v30.659H.68a.682.682 0 0 0 0 1.362h39.516a.682.682 0 0 0 0-1.362Zm-12.945-6.132c0-3.394.912-7.494 2.044-7.494 1.132 0 2.044 4.1 2.044 7.494a2.046 2.046 0 0 1-2.044 2.044 2.046 2.046 0 0 1-2.044-2.044Z" fill="#d8ba71" fill-rule="evenodd" data-name="Path 207"/><path d="M14.307 9.538a.682.682 0 0 0 0-1.362H10.22a.682.682 0 0 0 0 1.362h4.087Z" fill="#d8ba71" fill-rule="evenodd" data-name="Path 206"/><path d="M4.088 11.582c0 .376.305.681.681.681h.681v4.088h-.68a.682.682 0 0 0 0 1.363h.68v4.088h-.68a.682.682 0 0 0 0 1.362h.68v4.088h-.68a.682.682 0 0 0 0 1.363h.68v4.087h-.68a.682.682 0 0 0 0 1.363h.68v3.407a.682.682 0 0 0 1.363 0v-3.407h2.725v3.407a.682.682 0 0 0 1.363 0v-3.407h2.725v3.407a.682.682 0 0 0 1.362 0v-3.407h2.726v3.407a.682.682 0 0 0 1.362 0v-3.407h.681a.682.682 0 0 0 0-1.363h-.68v-4.087h.68a.682.682 0 0 0 0-1.363h-.68v-4.088a.682.682 0 0 0 0-1.362.682.682 0 0 0-1.363 0h-2.726v-4.088h2.044a.682.682 0 0 0 0-1.363h-2.044v-4.088h.341a.682.682 0 0 0 0-1.362H4.77a.681.681 0 0 0-.681.681Zm10.9 11.582h2.726v4.088h-2.725v-4.088Zm0 5.45h2.726v4.089h-2.725v-4.088Zm-4.087-16.35h2.725v4.087h-2.725v-4.088Zm0 5.45h2.725v4.088h-2.725v-4.088Zm0 5.45h2.725v4.088h-2.725v-4.088Zm0 5.45h2.725v4.089h-2.725v-4.088Zm-4.088-16.35h2.725v4.087H6.813v-4.088Zm0 5.45h2.725v4.088H6.813v-4.088Zm0 5.45h2.725v4.088H6.813v-4.088Zm0 5.45h2.725v4.089H6.813v-4.088Z" fill="#d8ba71" fill-rule="evenodd" data-name="Path 205"/><path d="m40.679 19.957-7.076-7.076a.682.682 0 0 0-.964.964l6.877 6.876v2.443h-2.443l-.283-.282V21.12a.682.682 0 0 0-.68-.68h-.682v-.682a.682.682 0 0 0-.681-.681h-1.762l-.282-.283v-1.761a.682.682 0 0 0-.682-.682H30.26l-.066-.066a.682.682 0 0 0-.963.964l.266.265a.68.68 0 0 0 .481.2h1.363v1.362c0 .18.072.354.199.481l.681.683c.128.128.301.2.483.2h1.362v.68c0 .377.306.682.682.682h.68v1.362c0 .18.072.355.2.482l.682.681a.68.68 0 0 0 .481.2h3.407a.682.682 0 0 0 .681-.681v-3.407a.68.68 0 0 0-.2-.482Z" fill="#d8ba71" fill-rule="evenodd" data-name="Path 204"/><path d="M19.144 14.303a30.707 30.707 0 0 0-.068 2.048c0 3.413 1.019 5.45 2.726 5.45 2.151 0 2.725-2.568 2.725-4.087a.682.682 0 0 0-1.363 0c0 .027-.058 2.725-1.362 2.725-.79 0-1.363-1.719-1.363-4.088 0-7.943 2.788-8.848 2.876-8.873a.682.682 0 0 0-.284-1.333c-.137.028-.63.157-1.225.666.001-.117.01-.234.042-.35.094-.352.32-.646.635-.828.315-.182.683-.23 1.034-.136s.646.32.827.635c.376.65.152 1.486-.498 1.861a.682.682 0 0 0 .68 1.18 2.73 2.73 0 0 0 .998-3.723 2.71 2.71 0 0 0-1.655-1.27 2.705 2.705 0 0 0-2.067.273 2.71 2.71 0 0 0-1.27 1.655 2.71 2.71 0 0 0 .227 1.963c-.584.952-1.13 2.368-1.435 4.474-1.02-1.221-1.61-2.777-1.61-4.37a6.82 6.82 0 0 1 6.813-6.812 6.82 6.82 0 0 1 6.813 6.813 6.82 6.82 0 0 1-8.975 6.463.682.682 0 0 0-.432 1.292 8.17 8.17 0 0 0 2.594.42c4.508 0 8.176-3.667 8.176-8.175C32.703 3.667 29.035 0 24.527 0s-8.176 3.667-8.176 8.176c0 2.323 1.043 4.58 2.793 6.127Z" fill="#d8ba71" fill-rule="evenodd" data-name="Path 203"/></g></svg>