<svg xmlns="http://www.w3.org/2000/svg" width="29" height="29" viewBox="551 1723 29 29"><path d="M555.305 1752a.844.844 0 0 1-.721-.401.844.844 0 0 1-.041-.825l5.098-10.31a.845.845 0 0 1 .761-.472h10.196c.32 0 .619.186.76.473l5.098 10.31a.844.844 0 0 1-.039.824.845.845 0 0 1-.722.401h-20.39Zm1.368-1.699h17.654l-4.257-8.61h-9.14l-4.257 8.61Zm19.08-5.21a.85.85 0 0 1-.85-.85v-9.68a13.88 13.88 0 0 1-5.778 3.24.851.851 0 0 1-.453-1.638c2.567-.71 4.84-2.247 6.4-4.327a.867.867 0 0 1 .68-.34h3.398c.468 0 .85.38.85.85v11.895c0 .468-.382.85-.85.85h-3.398Zm.848-1.7h1.7v-10.196h-1.7v10.196Zm-24.751 1.7a.85.85 0 0 1-.85-.85v-11.895c0-.47.38-.85.85-.85h3.398c.265 0 .52.127.68.34 1.56 2.08 3.833 3.617 6.4 4.327a.85.85 0 0 1-.453 1.638 13.88 13.88 0 0 1-5.777-3.24v9.68a.85.85 0 0 1-.85.85h-3.398Zm.849-1.7h1.7v-10.196h-1.7v10.196Zm15.402-9.568-2.601-1.367-2.601 1.367a.838.838 0 0 1-.395.099.856.856 0 0 1-.653-.307.83.83 0 0 1-.185-.688l.497-2.896-2.104-2.051a.845.845 0 0 1-.215-.872.845.845 0 0 1 .686-.577l2.907-.423 1.301-2.635a.843.843 0 0 1 .762-.473c.325 0 .617.181.762.473l1.3 2.635 2.908.423a.844.844 0 0 1 .685.577.843.843 0 0 1-.214.872l-2.104 2.051.496 2.896a.83.83 0 0 1-.183.686.868.868 0 0 1-.656.309.839.839 0 0 1-.393-.099Zm-2.205-3.08 1.472.775-.282-1.64a.848.848 0 0 1 .245-.752l1.19-1.161-1.645-.24a.85.85 0 0 1-.64-.464l-.736-1.492-.737 1.492a.85.85 0 0 1-.639.464l-1.647.24 1.192 1.161a.85.85 0 0 1 .244.752l-.28 1.64 1.471-.774a.858.858 0 0 1 .792 0Zm9.006-1.796a2.551 2.551 0 0 1 2.55-2.549 2.552 2.552 0 0 1 2.548 2.549 2.552 2.552 0 0 1-2.549 2.549 2.551 2.551 0 0 1-2.549-2.549Zm1.7 0a.85.85 0 0 0 1.7 0 .85.85 0 0 0-1.7 0Zm-25.602 0a2.552 2.552 0 0 1 2.549-2.549 2.552 2.552 0 0 1 2.549 2.549 2.552 2.552 0 0 1-2.55 2.549 2.552 2.552 0 0 1-2.548-2.549Zm1.699 0a.85.85 0 0 0 1.7 0 .85.85 0 0 0-1.7 0Z" fill="#d8ba71" fill-rule="evenodd" data-name="Combined Shape"/></svg>