<svg xmlns="http://www.w3.org/2000/svg" width="36.533" height="37.05" viewBox="919.233 1724.483 36.533 37.05"><g data-name="management-svgrepo-com"><path d="M933.402 1726.91a1.049 1.049 0 0 0-1.483 1.482l1.873 1.873c-7.254.35-13.052 6.185-13.117 14.017l-1.283 2.222a1.049 1.049 0 0 0 .384 1.432l1.13.652-1.13.652a1.049 1.049 0 0 0-.384 1.433l2.461 4.262c.29.502.93.673 1.432.384l1.13-.652v1.304c0 .579.47 1.048 1.048 1.048h4.922c.579 0 1.048-.47 1.048-1.048v-1.304l1.13.652a1.049 1.049 0 0 0 1.432-.384l2.46-4.262a1.049 1.049 0 0 0-.383-1.433l-1.13-.652 1.13-.652c.502-.29.673-.93.384-1.432l-2.46-4.263a1.049 1.049 0 0 0-1.433-.383l-1.13.652v-1.304c0-.58-.47-1.049-1.048-1.049h-4.922c-.579 0-1.048.47-1.048 1.049v1.304l-1.13-.652a1.045 1.045 0 0 0-.284-.113c1.03-5.122 5.412-9.045 10.751-9.376l-1.833 1.833a1.049 1.049 0 1 0 1.483 1.483l3.647-3.646a1.049 1.049 0 0 0 0-1.483l-3.647-3.646Zm-8.463 18.324a1.05 1.05 0 0 0 1.573-.908v-2.072h2.825v2.072a1.049 1.049 0 0 0 1.572.908l1.795-1.036 1.412 2.446-1.794 1.036a1.048 1.048 0 0 0 0 1.816l1.794 1.036-1.412 2.446-1.795-1.035a1.05 1.05 0 0 0-1.572.908v2.071h-2.825v-2.071a1.049 1.049 0 0 0-1.573-.908l-1.794 1.035-1.413-2.446 1.795-1.036a1.048 1.048 0 0 0 0-1.816l-1.795-1.036 1.413-2.446 1.794 1.036Z" fill="#d8ba71" fill-rule="evenodd" data-name="Path 211"/><path d="M927.924 1751.902a3.317 3.317 0 0 0 3.314-3.314 3.318 3.318 0 0 0-3.314-3.313 3.318 3.318 0 0 0-3.314 3.313 3.318 3.318 0 0 0 3.314 3.314Zm0-4.53c.67 0 1.217.545 1.217 1.216a1.218 1.218 0 0 1-2.433 0c0-.67.545-1.216 1.216-1.216Z" fill="#d8ba71" fill-rule="evenodd" data-name="Path 210"/><path d="M952.721 1748.712c-1.698 3.97-5.528 6.757-10.043 7.037l1.833-1.833a1.049 1.049 0 0 0-1.483-1.483l-3.647 3.647c-.409.41-.409 1.073 0 1.483l3.647 3.646a1.046 1.046 0 0 0 1.483 0c.41-.41.41-1.074 0-1.483l-1.874-1.874c6.638-.328 12.596-5.317 13.058-11.834.102-1.44.027-5.771.027-5.771 0-2.067-1.283-3.895-3.244-4.549l-1.363-.418a1.048 1.048 0 0 0-1.293.643l-1.749 4.8s-.442-2.74-.479-2.8l.007-.01.93-1.61a.555.555 0 0 0-.481-.833h-1.859a.555.555 0 0 0-.48.833l.928 1.61.007.01c-.036.06-.478 2.8-.478 2.8l-1.75-4.8a1.048 1.048 0 0 0-1.293-.643l-1.362.418a4.789 4.789 0 0 0-3.279 4.549v7.417c0 .579.47 1.048 1.049 1.048h13.188Zm-12.14-2.097v-6.368c0-1.16.736-2.185 1.834-2.556l.374-.115 3.294 9.039h-5.502Zm13.031-1.14c0 .657-.86 1.14-1.553 1.14h-3.902l3.295-9.039.374.115c1.097.371 1.786 1.397 1.786 2.556v5.228Z" fill="#d8ba71" fill-rule="evenodd" data-name="Path 209"/><path d="M947.12 1734.169a4.848 4.848 0 0 0 4.843-4.842 4.848 4.848 0 0 0-4.843-4.843 4.848 4.848 0 0 0-4.842 4.843 4.848 4.848 0 0 0 4.842 4.842Zm0-7.588a2.749 2.749 0 0 1 2.746 2.746 2.749 2.749 0 0 1-2.746 2.745 2.748 2.748 0 0 1-2.745-2.745 2.748 2.748 0 0 1 2.745-2.746Z" fill="#d8ba71" fill-rule="evenodd" data-name="Path 208"/></g></svg>