<svg xmlns="http://www.w3.org/2000/svg" xmlns:xlink="http://www.w3.org/1999/xlink" width="120.542" height="120.542" viewBox="0 0 120.542 120.542">
  <defs>
    <filter id="Rectangle_387" x="0" y="0" width="120.542" height="120.542" filterUnits="userSpaceOnUse">
      <feOffset dy="3" input="SourceAlpha"/>
      <feGaussianBlur stdDeviation="3" result="blur"/>
      <feFlood flood-color="#0f1b3e"/>
      <feComposite operator="in" in2="blur"/>
      <feComposite in="SourceGraphic"/>
    </filter>
    <linearGradient id="linear-gradient" x1="-51.443" y1="-43.5" x2="-49.864" y2="-43.465" gradientUnits="objectBoundingBox">
      <stop offset="0.03" stop-color="#c48e2d"/>
      <stop offset="0.07" stop-color="#cd9e42"/>
      <stop offset="0.14" stop-color="#dcb764"/>
      <stop offset="0.18" stop-color="#e1c070"/>
      <stop offset="0.25" stop-color="#efda8f"/>
      <stop offset="0.27" stop-color="#f4e29a"/>
      <stop offset="0.36" stop-color="#e8ce81"/>
      <stop offset="0.44" stop-color="#ddbb69"/>
      <stop offset="0.59" stop-color="#c48e2d"/>
      <stop offset="0.75" stop-color="#f6eab1"/>
      <stop offset="0.81" stop-color="#f0dfa1"/>
      <stop offset="0.87" stop-color="#ead38e"/>
      <stop offset="0.92" stop-color="#e1c378"/>
      <stop offset="0.97" stop-color="#d6af5a"/>
    </linearGradient>
    <linearGradient id="linear-gradient-2" x1="-52.297" y1="-43.515" x2="-50.718" y2="-43.48" xlink:href="#linear-gradient"/>
    <linearGradient id="linear-gradient-3" x1="-145.348" y1="-105.541" x2="-140.95" y2="-105.455" xlink:href="#linear-gradient"/>
    <linearGradient id="linear-gradient-4" x1="-328.711" y1="-234.461" x2="-318.709" y2="-234.27" xlink:href="#linear-gradient"/>
    <linearGradient id="linear-gradient-5" x1="-453.942" y1="-234.494" x2="-440.206" y2="-234.305" xlink:href="#linear-gradient"/>
    <linearGradient id="linear-gradient-6" x1="-303.064" y1="-234.527" x2="-293.938" y2="-234.337" xlink:href="#linear-gradient"/>
    <linearGradient id="linear-gradient-7" x1="-3648.381" y1="-234.554" x2="-3539.142" y2="-234.364" xlink:href="#linear-gradient"/>
    <linearGradient id="linear-gradient-8" x1="-432.446" y1="-236.715" x2="-419.536" y2="-236.524" xlink:href="#linear-gradient"/>
  </defs>
  <g id="Group_80" data-name="Group 80" transform="translate(9 6)">
    <g transform="matrix(1, 0, 0, 1, -9, -6)" filter="url(#Rectangle_387)">
      <rect id="Rectangle_387-2" data-name="Rectangle 387" width="69.658" height="75.358" transform="translate(62.29 6) rotate(45)" fill="#101c35"/>
    </g>
    <g id="Magic_regena-21" data-name="Magic regena-21" transform="translate(28.107 22.59)">
      <g id="Group_74" data-name="Group 74" transform="translate(0 0)">
        <path id="Path_255" data-name="Path 255" d="M35.5,5c.035-.3,1.227,13.589-2.708,19.329-2.969,4.323-21.008,5.643-21.268,5.556s17.553,1.788,22.35-3.31C39.2,20.917,35.5,5,35.5,5Z" transform="translate(-11.525 -4.992)" fill="url(#linear-gradient)"/>
        <path id="Path_256" data-name="Path 256" d="M49.23,64.921c-.035.3-1.227-13.589,2.708-19.329,2.969-4.323,21.008-5.643,21.268-5.556s-17.553-1.788-22.35,3.31C45.532,49,49.23,64.921,49.23,64.921Z" transform="translate(-26.882 -19.643)" fill="url(#linear-gradient-2)"/>
        <path id="Path_257" data-name="Path 257" d="M52.207,38.649a9.734,9.734,0,0,0-6.927,7.8h0a4.338,4.338,0,0,0-2.02-2.581l-.11-.058a9.724,9.724,0,0,0,6.927-7.8l.226.469a5.145,5.145,0,0,0,1.5,1.869l.394.3Z" transform="translate(-24.848 -18.059)" fill="url(#linear-gradient-3)"/>
      </g>
      <g id="Group_75" data-name="Group 75" transform="translate(9.969 52.646)">
        <path id="Path_258" data-name="Path 258" d="M32.379,96.371c-.33.081-.932.851-1.215,1.134a.521.521,0,0,1-.839.023c-.278-.284-.88-1.076-1.21-1.157v4.3H28.75V95.96c.388,0,.857.012,1.088.347q.9,1.3,1.806,0a1.263,1.263,0,0,1,1.088-.347v4.711h-.365v-4.3Z" transform="translate(-28.75 -95.96)" fill="url(#linear-gradient-4)"/>
        <path id="Path_259" data-name="Path 259" d="M43.386,99.547a1.847,1.847,0,0,1,.625.37V96.381a1.921,1.921,0,0,0-.862.492,3.43,3.43,0,0,0-.689.949,5.467,5.467,0,0,0-.457,1.3,7,7,0,0,0-.168,1.551H41.47a7.286,7.286,0,0,1,.1-1.25,6.5,6.5,0,0,1,.3-1.123,5.6,5.6,0,0,1,.451-.955,3.441,3.441,0,0,1,.585-.735,2.6,2.6,0,0,1,.694-.475,1.793,1.793,0,0,1,.77-.168v4.711H44v-.035a.617.617,0,0,0-.127-.336,1.1,1.1,0,0,0-.313-.272,1.718,1.718,0,0,0-.457-.185,2.137,2.137,0,0,0-.55-.069,2.413,2.413,0,0,0-.544.064v-.37c.087-.017.174-.035.26-.046a2.263,2.263,0,0,1,.284-.017,2.355,2.355,0,0,1,.822.139Z" transform="translate(-34.109 -95.964)" fill="url(#linear-gradient-5)"/>
        <path id="Path_260" data-name="Path 260" d="M54.153,97.806a4.113,4.113,0,0,1,2.541.075l-.012.37h0v.064a2.454,2.454,0,0,1-.174.92,2.577,2.577,0,0,1-.463.747,2.118,2.118,0,0,1-.689.5,2.047,2.047,0,0,1-1.7,0,2.118,2.118,0,0,1-.689-.5,2.459,2.459,0,0,1-.463-.747,2.525,2.525,0,0,1,0-1.84,2.577,2.577,0,0,1,.463-.747,2.118,2.118,0,0,1,.689-.5,2.007,2.007,0,0,1,.851-.185,1.794,1.794,0,0,1,.469.058,2.518,2.518,0,0,1,.44.162V96.6a1.6,1.6,0,0,0-.428-.2,1.631,1.631,0,0,0-1.186.081,1.906,1.906,0,0,0-.579.428,2.127,2.127,0,0,0-.532,1.412,2.031,2.031,0,0,0,.145.775,2.088,2.088,0,0,0,.388.637,1.775,1.775,0,0,0,.579.428,1.673,1.673,0,0,0,1.412,0,1.906,1.906,0,0,0,.579-.428,2.127,2.127,0,0,0,.532-1.412v-.1a.32.32,0,0,0-.012-.1,6.025,6.025,0,0,0-1.024-.249,7.226,7.226,0,0,0-1.134-.058h0Z" transform="translate(-38.684 -95.96)" fill="url(#linear-gradient-6)"/>
        <path id="Path_261" data-name="Path 261" d="M65.7,95.96v4.711h.365V95.96Z" transform="translate(-44.316 -95.96)" fill="url(#linear-gradient-7)"/>
        <path id="Path_262" data-name="Path 262" d="M72.683,99.122a2.088,2.088,0,0,0,.388.637,1.775,1.775,0,0,0,.579.428,1.682,1.682,0,0,0,1.186.087,1.689,1.689,0,0,0,.428-.2v.417a1.992,1.992,0,0,1-.44.156,2.079,2.079,0,0,1-.469.052,2.027,2.027,0,0,1-.851-.185,2.118,2.118,0,0,1-.689-.5,2.459,2.459,0,0,1-.463-.747,2.525,2.525,0,0,1,0-1.84,2.577,2.577,0,0,1,.463-.747,2.118,2.118,0,0,1,.689-.5,1.753,1.753,0,0,1,1.233-.058l.156.336a1.664,1.664,0,0,0-.544-.1,1.635,1.635,0,0,0-.706.156,1.906,1.906,0,0,0-.579.428,2.127,2.127,0,0,0-.532,1.412,2.031,2.031,0,0,0,.145.775Z" transform="translate(-47.046 -95.991)" fill="url(#linear-gradient-8)"/>
      </g>
    </g>
  </g>
</svg>
