<svg xmlns="http://www.w3.org/2000/svg" xmlns:xlink="http://www.w3.org/1999/xlink" width="120.542" height="120.542" viewBox="0 0 120.542 120.542">
  <defs>
    <filter id="Rectangle_387" x="0" y="0" width="120.542" height="120.542" filterUnits="userSpaceOnUse">
      <feOffset dy="3" input="SourceAlpha"/>
      <feGaussianBlur stdDeviation="3" result="blur"/>
      <feFlood flood-color="#0f1b3e"/>
      <feComposite operator="in" in2="blur"/>
      <feComposite in="SourceGraphic"/>
    </filter>
    <linearGradient id="linear-gradient" x1="-0.001" y1="0.5" x2="1" y2="0.5" gradientUnits="objectBoundingBox">
      <stop offset="0.03" stop-color="#bf8b3b"/>
      <stop offset="0.07" stop-color="#c59648"/>
      <stop offset="0.19" stop-color="#d5b369"/>
      <stop offset="0.27" stop-color="#dabc75"/>
      <stop offset="0.43" stop-color="#e7d595"/>
      <stop offset="0.6" stop-color="#f8f4bd"/>
      <stop offset="0.64" stop-color="#f5efb7"/>
      <stop offset="0.7" stop-color="#eee1a6"/>
      <stop offset="0.78" stop-color="#e2cb8a"/>
      <stop offset="0.83" stop-color="#d7b66f"/>
      <stop offset="0.96" stop-color="#bf8b3b"/>
    </linearGradient>
    <linearGradient id="linear-gradient-2" x1="-0.001" y1="0.5" x2="1" y2="0.5" xlink:href="#linear-gradient"/>
    <linearGradient id="linear-gradient-3" x1="-0.002" y1="0.5" x2="0.99" y2="0.5" xlink:href="#linear-gradient"/>
    <linearGradient id="linear-gradient-4" x1="0" y1="0.499" x2="1" y2="0.499" xlink:href="#linear-gradient"/>
    <linearGradient id="linear-gradient-5" x1="0" y1="0.499" x2="1" y2="0.499" xlink:href="#linear-gradient"/>
    <linearGradient id="linear-gradient-6" x1="0" y1="0.5" x2="1" y2="0.5" xlink:href="#linear-gradient"/>
    <linearGradient id="linear-gradient-7" x1="0" y1="0.501" x2="1" y2="0.501" xlink:href="#linear-gradient"/>
    <linearGradient id="linear-gradient-9" x1="0" y1="0.5" x2="1" y2="0.5" xlink:href="#linear-gradient"/>
    <linearGradient id="linear-gradient-10" x1="0.003" y1="0.5" x2="1.003" y2="0.5" xlink:href="#linear-gradient"/>
    <linearGradient id="linear-gradient-11" x1="0" y1="0.5" x2="1" y2="0.5" xlink:href="#linear-gradient"/>
    <linearGradient id="linear-gradient-12" x1="0" y1="0.5" x2="1" y2="0.5" xlink:href="#linear-gradient"/>
    <linearGradient id="linear-gradient-13" x1="0" y1="0.501" x2="0.999" y2="0.501" xlink:href="#linear-gradient"/>
    <linearGradient id="linear-gradient-14" x1="0" y1="0.499" x2="0.998" y2="0.499" xlink:href="#linear-gradient"/>
    <linearGradient id="linear-gradient-15" x1="0" y1="0.499" x2="1" y2="0.499" xlink:href="#linear-gradient"/>
    <linearGradient id="linear-gradient-16" x1="0.005" y1="0.499" x2="1.005" y2="0.499" xlink:href="#linear-gradient"/>
    <linearGradient id="linear-gradient-17" x1="0.003" y1="0.499" x2="1.009" y2="0.499" xlink:href="#linear-gradient"/>
    <linearGradient id="linear-gradient-18" x1="-0.004" y1="0.497" x2="1.002" y2="0.497" xlink:href="#linear-gradient"/>
    <linearGradient id="linear-gradient-19" x1="-0.014" y1="0.516" x2="0.993" y2="0.516" xlink:href="#linear-gradient"/>
    <linearGradient id="linear-gradient-20" x1="-0.02" y1="0.503" x2="1" y2="0.503" xlink:href="#linear-gradient"/>
    <linearGradient id="linear-gradient-21" x1="-0.012" y1="0.505" x2="0.988" y2="0.505" xlink:href="#linear-gradient"/>
    <linearGradient id="linear-gradient-22" x1="0.004" y1="0.501" x2="1" y2="0.501" xlink:href="#linear-gradient"/>
    <linearGradient id="linear-gradient-23" x1="0.002" y1="0.496" x2="1" y2="0.496" xlink:href="#linear-gradient"/>
    <linearGradient id="linear-gradient-24" x1="0.005" y1="0.497" x2="1.002" y2="0.497" xlink:href="#linear-gradient"/>
    <linearGradient id="linear-gradient-25" x1="0.002" y1="0.5" x2="1" y2="0.5" xlink:href="#linear-gradient"/>
    <linearGradient id="linear-gradient-27" x1="0.007" y1="0.523" x2="1.009" y2="0.523" xlink:href="#linear-gradient"/>
    <linearGradient id="linear-gradient-28" x1="0.004" y1="0.503" x2="1.008" y2="0.503" xlink:href="#linear-gradient"/>
    <linearGradient id="linear-gradient-29" x1="-0.005" y1="0.499" x2="1.002" y2="0.499" xlink:href="#linear-gradient"/>
    <linearGradient id="linear-gradient-30" x1="-0.006" y1="0.503" x2="1" y2="0.503" xlink:href="#linear-gradient"/>
    <linearGradient id="linear-gradient-31" x1="-0.004" y1="0.496" x2="0.994" y2="0.496" xlink:href="#linear-gradient"/>
  </defs>
  <g id="Group_85" data-name="Group 85" transform="translate(-1060.661 -1041.5)">
    <g id="Group_81" data-name="Group 81" transform="translate(1069.661 1047.5)">
      <g transform="matrix(1, 0, 0, 1, -9, -6)" filter="url(#Rectangle_387)">
        <rect id="Rectangle_387-2" data-name="Rectangle 387" width="69.658" height="75.358" transform="translate(62.29 6) rotate(45)" fill="#101c35"/>
      </g>
    </g>
    <g id="logo1" transform="translate(1094.827 1079.638)">
      <path id="Path_212" data-name="Path 212" d="M294.773,396.946c2.421-3.115,7.788-3.965,11.033-1.947a5.7,5.7,0,0,1,2.258,6.12,10.866,10.866,0,0,1-11.331,8.709h-2.109a34.962,34.962,0,0,0,.9,3.654c.143.4.74.727,1.2.909a8.729,8.729,0,0,0,1.752.35c-.415.6-6.022.707-7.424.169.779-1.9,0-3.758-.26-5.62-.052-.331-.506-.694-.857-.863-.857-.409-1.772-.688-2.641-1.077-.617-.279-.961-.169-1.259.474-.98,2.1-2.012,4.166-3.044,6.23a12.238,12.238,0,0,1-.883,1.3,12.4,12.4,0,0,1-.948-1.363c-1.6-3.16-3.174-6.34-4.77-9.508a2.525,2.525,0,0,0-.649-.883c-.863-.649-1.512-.337-1.642.72q-.506,4.186-1.025,8.378c-.169,1.337.032,1.609,1.35,1.843l1.025.2c-.539.779-6.035.87-7.243.123a4.91,4.91,0,0,1,.9-.331,1.668,1.668,0,0,0,1.506-1.577c.461-3.063.928-6.12,1.382-9.177a2.122,2.122,0,0,0-.045-.441c-.552.11-1.1.182-1.622.331a6.928,6.928,0,0,0-5.367,5.964,7.269,7.269,0,0,0,4.64,7.256c3.245,1.3,6.405.824,9.585-.136.565-.169,1.11-.389,1.752-.617-.052.2-.052.324-.1.35-3.524,1.752-7.191,2.732-11.1,1.583a8.437,8.437,0,0,1-6.126-8.223,8.291,8.291,0,0,1,6.276-7.788,14.784,14.784,0,0,1,8.813.234c3.667,1.194,7.23,2.693,10.825,4.089a26.154,26.154,0,0,0,7.041,1.876,9.929,9.929,0,0,0,10.079-6.12c.688-1.811.922-3.693-.318-5.438a5.486,5.486,0,0,0-4.218-2.044,9.2,9.2,0,0,0-6.386,1.681ZM284.63,406.22l-4.037-1.583,2.434,5.023Z" transform="translate(-259.775 -392.285)" fill="url(#linear-gradient)"/>
      <path id="Path_213" data-name="Path 213" d="M269,400.166a8.624,8.624,0,0,1,4.076-1.947c1.558-.331,1.545-.325,1.785-1.888q.311-2.057.707-4.1a2.649,2.649,0,0,1,.454-.759c.24.182.578.305.7.545.857,1.661,1.707,3.329,2.473,5.03a2.726,2.726,0,0,0,1.869,1.545c2.1.688,4.153,1.512,6.211,2.33,1.168.461,1.142.5,1.668-.6q1.882-3.939,3.771-7.879a1.856,1.856,0,0,1,.273-.5,1.473,1.473,0,0,1,.649-.435c.1,0,.35.344.4.565.214,1.051.409,2.109.565,3.167q.61,4.225,1.181,8.437c.091.694.584.857,1.142.928a9.751,9.751,0,0,0,7.243-1.577,1.986,1.986,0,0,1,.785-.389,8.326,8.326,0,0,1-4.965,2.979,14.109,14.109,0,0,1-7.911-1.032c-3-1.194-5.906-2.6-8.891-3.835-3.316-1.369-6.743-2.291-10.384-1.616C271.505,399.368,270.253,399.816,269,400.166Zm22.571-.253h-.188l-1.1,2.343,1.739.707Z" transform="translate(-261.667 -391.43)" fill="url(#linear-gradient-2)"/>
      <path id="Path_214" data-name="Path 214" d="M278.943,437.625c0,.24-.084.357-.266.357h-3.323a.9.9,0,0,1-.558-.182.882.882,0,0,1-.4-.766.941.941,0,0,1,.188-.571.889.889,0,0,1,.759-.389,1.025,1.025,0,0,1,.61.221l.208-.279a1.356,1.356,0,0,0-.818-.279,1.3,1.3,0,0,0-1.3,1.3,1.227,1.227,0,0,0,.526,1.038,1.3,1.3,0,0,0,.422.2,3.079,3.079,0,0,0,.649.052h3.063c.422,0,.649-.227.649-.688V435.73h-.363Z" transform="translate(-263.44 -406.966)" fill="url(#linear-gradient-3)"/>
      <path id="Path_215" data-name="Path 215" d="M279.18,435.093a.234.234,0,0,0,.188-.071.24.24,0,0,0,.078-.169.221.221,0,0,0-.078-.175.24.24,0,0,0-.188-.078.246.246,0,0,0-.182.078.221.221,0,0,0-.078.175.26.26,0,0,0,.071.169.253.253,0,0,0,.188.071Z" transform="translate(-265.149 -406.57)" fill="url(#linear-gradient-4)"/>
      <path id="Path_216" data-name="Path 216" d="M278.2,435.093a.253.253,0,0,0,.188-.071.259.259,0,0,0,.071-.169.24.24,0,0,0-.071-.175.26.26,0,0,0-.188-.078.246.246,0,0,0-.188.078.221.221,0,0,0-.078.175.24.24,0,0,0,.078.169A.234.234,0,0,0,278.2,435.093Z" transform="translate(-264.802 -406.57)" fill="url(#linear-gradient-5)"/>
      <path id="Path_217" data-name="Path 217" d="M25.1,46.482h.363V43.146L25.1,43.12Z" transform="translate(-8.818 -15.122)" fill="url(#linear-gradient-6)"/>
      <path id="Path_218" data-name="Path 218" d="M283.891,438.03v.247a1.5,1.5,0,0,1-.331.915h.428a1.713,1.713,0,0,0,.26-.915V435.72h-.357Z" transform="translate(-266.778 -406.963)" fill="url(#linear-gradient-7)"/>
      <path id="Path_219" data-name="Path 219" d="M288.626,435.093a.253.253,0,0,0,.188-.071.26.26,0,0,0,.071-.169.24.24,0,0,0-.071-.175.26.26,0,0,0-.188-.078.247.247,0,0,0-.188.078.221.221,0,0,0-.078.175.24.24,0,0,0,.078.169A.234.234,0,0,0,288.626,435.093Z" transform="translate(-268.463 -406.57)" fill="url(#linear-gradient-5)"/>
      <path id="Path_220" data-name="Path 220" d="M289.61,435.093a.246.246,0,0,0,.188-.071.24.24,0,0,0,.078-.169.221.221,0,0,0-.078-.175.246.246,0,0,0-.188-.078.26.26,0,0,0-.188.078.24.24,0,0,0-.071.175.234.234,0,0,0,.071.169.246.246,0,0,0,.188.071Z" transform="translate(-268.81 -406.57)" fill="url(#linear-gradient-9)"/>
      <path id="Path_221" data-name="Path 221" d="M294.049,437.575h-.584c-.182,0-.266-.117-.266-.357V434.57h-.383v2.648c0,.24-.091.357-.266.357h-1.136l.48-1.038a1.472,1.472,0,0,0,.162-.532.649.649,0,0,0-.2-.493.87.87,0,0,0-.571-.182h-.733a.851.851,0,0,0-.571.182.649.649,0,0,0-.2.493,1.473,1.473,0,0,0,.162.532l.474,1.038h-1.733v-.032l.2-.2a1.6,1.6,0,0,0,.182-.792,1.214,1.214,0,0,0-.247-.824,1.253,1.253,0,0,0-1.064-.539,1.3,1.3,0,0,0-.779.253,1.194,1.194,0,0,0-.5.993v.123a1.616,1.616,0,0,0,.195.785l.162.2c.039.045.045.052,0,.032h-1.389v-2.992h-.363v3.336h7.47a.649.649,0,0,1,.8,0h1.032v-3.336h-.363Zm-6.152,0h-.273a.961.961,0,0,1-.441-.175.948.948,0,0,1-.363-.857s0,0,0-.045h0v-.045a.889.889,0,0,1,.363-.733.935.935,0,0,1,.558-.188.9.9,0,0,1,.759.4.785.785,0,0,1,.182.571h0a1.95,1.95,0,0,1,0,.26.837.837,0,0,1-.188.487.889.889,0,0,1-.6.331Zm2.914,0-.649-1.3a.649.649,0,0,1-.071-.273.3.3,0,0,1,.1-.24.448.448,0,0,1,.292-.084h.772a.415.415,0,0,1,.286.084.279.279,0,0,1,.1.24.648.648,0,0,1-.065.273l-.649,1.3Z" transform="translate(-267.312 -406.559)" fill="url(#linear-gradient-10)"/>
      <path id="Path_222" data-name="Path 222" d="M303.692,435.939a1.11,1.11,0,0,1,.617-.2h.5v-.344H304.3c-.175,0-.26-.078-.26-.227s.091-.247.279-.247h.389l-.2-.331h-.188a.649.649,0,0,0-.461.156.564.564,0,0,0-.169.422.4.4,0,0,0,.11.325.9.9,0,0,0-.4.26Z" transform="translate(-273.742 -406.566)" fill="url(#linear-gradient-11)"/>
      <path id="Path_223" data-name="Path 223" d="M308.78,440.33a.246.246,0,0,0-.182.078.221.221,0,0,0-.078.175.26.26,0,0,0,.071.169.285.285,0,0,0,.188.071.259.259,0,0,0,.188-.071.24.24,0,0,0,.078-.169.221.221,0,0,0-.078-.175A.24.24,0,0,0,308.78,440.33Z" transform="translate(-275.54 -408.581)" fill="url(#linear-gradient-12)"/>
      <path id="Path_224" data-name="Path 224" d="M309.766,440.33a.26.26,0,0,0-.188.078.22.22,0,0,0-.078.175.24.24,0,0,0,.078.169.285.285,0,0,0,.376,0,.233.233,0,0,0,.071-.169.214.214,0,0,0-.071-.175.246.246,0,0,0-.188-.078Z" transform="translate(-275.884 -408.581)" fill="url(#linear-gradient-13)"/>
      <path id="Path_225" data-name="Path 225" d="M308.884,435.33a1.74,1.74,0,0,0-.876.234,1.951,1.951,0,0,0-.383.3l.247.247a1.392,1.392,0,0,1,2.414.961,1.3,1.3,0,0,1-.1.513h-2.966c-.175,0-.26-.117-.26-.357v-1.9h-.37v1.9c0,.24-.084.357-.266.357h-.571V434.59h-.363v3h-2.265a.954.954,0,0,1-.948-.954.98.98,0,0,1,.214-.6l-.3-.208a1.357,1.357,0,0,0-.286.811,1.227,1.227,0,0,0,.526,1.038,1.35,1.35,0,0,0,.428.2,3.077,3.077,0,0,0,.649.052h2.979a.532.532,0,0,0,.409-.149.526.526,0,0,0,.4.149h3.245a1.72,1.72,0,0,0,.221-.857,1.674,1.674,0,0,0-.513-1.233A1.707,1.707,0,0,0,308.884,435.33Z" transform="translate(-273.184 -406.566)" fill="url(#linear-gradient-14)"/>
      <path id="Path_226" data-name="Path 226" d="M312.986,440.18a.26.26,0,0,0-.188.078.22.22,0,0,0-.078.175.227.227,0,0,0,.078.169.233.233,0,0,0,.188.071.253.253,0,0,0,.188-.071.246.246,0,0,0,.071-.169.24.24,0,0,0-.071-.175.26.26,0,0,0-.188-.078Z" transform="translate(-277.014 -408.528)" fill="url(#linear-gradient-15)"/>
      <path id="Path_227" data-name="Path 227" d="M319.524,435.992a1.259,1.259,0,0,0-1.064-.539,1.3,1.3,0,0,0-.785.253,1.22,1.22,0,0,0-.526,1.045v.117a1.467,1.467,0,0,0,.162.714h-.928V434.59H316v3.336h1.538a.647.647,0,0,0,.117.1,1.3,1.3,0,0,0,.785.253,1.24,1.24,0,0,0,.928-.376l.195-.253a1.6,1.6,0,0,0,.188-.792v-.11A1.3,1.3,0,0,0,319.524,435.992Zm-.123.87a1.149,1.149,0,0,1-.182.694.889.889,0,0,1-.759.389.876.876,0,0,1-.558-.188,1.032,1.032,0,0,1-.389-.9.1.1,0,0,1,0-.045h0a.11.11,0,0,1,0-.045.909.909,0,0,1,.389-.779.921.921,0,0,1,.558-.188.883.883,0,0,1,.759.4.915.915,0,0,1,.182.565v.11Z" transform="translate(-278.165 -406.566)" fill="url(#linear-gradient-16)"/>
      <path id="Path_228" data-name="Path 228" d="M259.552,448.446l-1.123-3.05v2.343c0,.26.045.422.13.48a.337.337,0,0,0,.188.058h.169v.149h-1.233v-.143h.149a.286.286,0,0,0,.279-.182.155.155,0,0,0,0-.052V445.8a.649.649,0,0,0-.11-.467.415.415,0,0,0-.162-.071h-.169v-.149h1.142l.941,2.525,1.019-2.525h1.116v.149h-.117a.312.312,0,0,0-.279.175,1.194,1.194,0,0,0-.039.363v1.947c0,.247.032.4.11.467a.331.331,0,0,0,.162.065h.162v.149h-1.369v-.143h.123q.227,0,.273-.175h0a1.253,1.253,0,0,0,.039-.363v-2.278l-1.227,2.985Z" transform="translate(-257.69 -410.259)" fill="url(#linear-gradient-17)"/>
      <path id="Path_229" data-name="Path 229" d="M267.039,447.746a.444.444,0,0,0,.084.195,1.407,1.407,0,0,0,.058.13.422.422,0,0,0,.266.208h.143v.149h-1.376v-.13h.143a.387.387,0,0,0,.143-.052.188.188,0,0,0,.1-.169.512.512,0,0,0-.045-.188h0l-.247-.649h-1.259l-.156.422a1.045,1.045,0,0,0-.1.363.24.24,0,0,0,.123.221.493.493,0,0,0,.195.058h.117v.149h-1.3V448.3h.058a.578.578,0,0,0,.344-.188h0a3.979,3.979,0,0,0,.37-.8l.837-2.161H266Zm-.818-.746-.558-1.473L265.118,447Z" transform="translate(-259.887 -410.273)" fill="url(#linear-gradient-18)"/>
      <path id="Path_230" data-name="Path 230" d="M273.129,446.087l-.182.052c-.084-.11-.169-.221-.253-.318a2.774,2.774,0,0,0-.266-.286l.117.1h0l-.1-.084a1.2,1.2,0,0,0-.772-.318.96.96,0,0,0-.857.519,2.057,2.057,0,0,0-.234.941v.058a1.577,1.577,0,0,0,.441,1.2,1.084,1.084,0,0,0,.74.273h.052a1.051,1.051,0,0,0,.694-.26.363.363,0,0,0,.071-.071.727.727,0,0,0,.162-.474.376.376,0,0,0-.208-.389h0a.79.79,0,0,0-.266-.065v-.149h1.337v.1h-.091a.258.258,0,0,0-.247.117h0a1.032,1.032,0,0,0-.058.4v.883h-.227l-.156-.337-.169.117-.156.091h0a1.641,1.641,0,0,1-.779.188,1.59,1.59,0,0,1-1.207-.506,1.713,1.713,0,0,1-.48-1.24,1.739,1.739,0,0,1,.441-1.194,1.6,1.6,0,0,1,1-.506,1.3,1.3,0,0,1,.156,0h.045a1.694,1.694,0,0,1,.954.3l.1-.234h.149Z" transform="translate(-262.032 -410.198)" fill="url(#linear-gradient-19)"/>
      <path id="Path_231" data-name="Path 231" d="M276.763,447.738a.649.649,0,0,0,.1.454.449.449,0,0,0,.221.084h.1v.149h-1.3v-.143h.1a.331.331,0,0,0,.279-.162,1.1,1.1,0,0,0,.045-.376V445.8a.649.649,0,0,0-.1-.454.4.4,0,0,0-.227-.084h-.1v-.149h1.3v.149h-.1a.311.311,0,0,0-.273.162.955.955,0,0,0-.045.376Z" transform="translate(-264.082 -410.259)" fill="url(#linear-gradient-20)"/>
      <path id="Path_232" data-name="Path 232" d="M281.7,446.3h-.156l-.234-.409v-.039h0l-.045-.065a1.194,1.194,0,0,0-.74-.513.96.96,0,0,0-1.045.441,1.785,1.785,0,0,0-.292,1.045,1.577,1.577,0,0,0,.344,1.077h0a1.22,1.22,0,0,0,.649.37,1.039,1.039,0,0,0,.24,0,1.239,1.239,0,0,0,.357-.058,1.5,1.5,0,0,0,.454-.227l.039-.032.1-.091.1-.1a.653.653,0,0,0,.078-.1l.084-.117.208.117a1.707,1.707,0,0,1-1.493.844,1.675,1.675,0,0,1-1.246-.506,1.635,1.635,0,0,1-.48-1.207,1.694,1.694,0,0,1,.461-1.214,2.252,2.252,0,0,1,1.084-.519l-.357.052a1.3,1.3,0,0,1,.357-.052,1.6,1.6,0,0,1,.993.3h0l.1-.208h.2Z" transform="translate(-265.044 -410.22)" fill="url(#linear-gradient-21)"/>
      <path id="Path_233" data-name="Path 233" d="M288.854,447.968l.071.084a.811.811,0,0,0,.454.24v.149h-.818l-1.1-1.571h-.707v.863c0,.26.045.422.13.48a.338.338,0,0,0,.188.058h.175v.149h-1.421v-.143h.123q.227,0,.273-.175h0a1.252,1.252,0,0,0,.039-.363v-1.947a.649.649,0,0,0-.11-.467.415.415,0,0,0-.162-.071h-.175v-.149H287.8a1.116,1.116,0,0,1,1.012.422.746.746,0,0,1,.117.422.785.785,0,0,1-.3.649l-.058.045-.11.065-.11.045-.143.039-.175.032Zm-1.3-1.3a.941.941,0,0,0,.584-.149.649.649,0,0,0,.26-.539c0-.441-.312-.649-.941-.649a1.642,1.642,0,0,0-.6.078.221.221,0,0,0-.13.208v1.064Z" transform="translate(-267.568 -410.255)" fill="url(#linear-gradient-22)"/>
      <path id="Path_234" data-name="Path 234" d="M294.391,445.993l-.156.065-.143-.162-.136-.136a1.538,1.538,0,0,0-.922-.422h-.292c-.273,0-.441.052-.5.156a.428.428,0,0,0-.058.253v.837h.376a.552.552,0,0,0,.448-.149h0a1.071,1.071,0,0,0,.143-.474h.169v1.467h-.169q-.045-.467-.311-.584h0a.811.811,0,0,0-.292-.045h-.363v1.032a.506.506,0,0,0,.065.292.649.649,0,0,0,.493.136,1.837,1.837,0,0,0,1.051-.279l.084-.065.091-.071a3.7,3.7,0,0,0,.435-.487l.149.071-.441,1.045h-2.855v-.188h.123q.227,0,.273-.175h0a1.254,1.254,0,0,0,.039-.363V445.8a.649.649,0,0,0-.11-.467.415.415,0,0,0-.162-.071h-.169v-.149h2.8Z" transform="translate(-269.477 -410.259)" fill="url(#linear-gradient-23)"/>
      <path id="Path_235" data-name="Path 235" d="M299.031,447.746a.444.444,0,0,0,.084.195.65.65,0,0,0,.058.13.422.422,0,0,0,.266.208h.136v.149H298.2v-.13h.143a.343.343,0,0,0,.143-.052.182.182,0,0,0,.1-.169.512.512,0,0,0-.045-.188h0l-.247-.649H297l-.156.422a1.163,1.163,0,0,0-.091.363.24.24,0,0,0,.123.221.493.493,0,0,0,.195.058h.117v.149h-1.3V448.3h.052a.577.577,0,0,0,.35-.188h0a3.724,3.724,0,0,0,.363-.8l.844-2.161h.454Zm-.824-.746-.558-1.473L297.11,447Z" transform="translate(-271.106 -410.273)" fill="url(#linear-gradient-24)"/>
      <path id="Path_236" data-name="Path 236" d="M304.347,448.446h-2.531v-.162h.123a.305.305,0,0,0,.273-.175h0a1.024,1.024,0,0,0,.045-.363V445.8q0-.37-.117-.467a.376.376,0,0,0-.162-.071h-.169v-.149h1.421v.149h-.156a.292.292,0,0,0-.279.182,1.141,1.141,0,0,0-.039.357v2.025a.486.486,0,0,0,.058.292.441.441,0,0,0,.363.123,1.148,1.148,0,0,0,.324-.045,1.592,1.592,0,0,0,.578-.279h0a1.828,1.828,0,0,0,.195-.169l.143-.169c.058-.071.117-.156.188-.253l.136.065Z" transform="translate(-273.184 -410.259)" fill="url(#linear-gradient-25)"/>
      <path id="Path_237" data-name="Path 237" d="M311.3,445.993l-.156.065-.143-.162a1.361,1.361,0,0,0-.136-.136,1.538,1.538,0,0,0-.922-.422h-.286q-.409,0-.506.156a.435.435,0,0,0-.052.253v.837h.37a.552.552,0,0,0,.448-.149h0a1.071,1.071,0,0,0,.143-.474h.169v1.467h-.169c-.032-.312-.136-.506-.305-.584h0a.791.791,0,0,0-.292-.046h-.357v1.032a.519.519,0,0,0,.058.292.649.649,0,0,0,.493.136,1.836,1.836,0,0,0,1.051-.279l.091-.065.084-.071a3.694,3.694,0,0,0,.435-.487l.156.071-.448,1.045h-2.855v-.188h.123q.227,0,.273-.175h0a1.251,1.251,0,0,0,.039-.363V445.8a.649.649,0,0,0-.11-.467.415.415,0,0,0-.162-.071h-.169v-.149h2.8Z" transform="translate(-275.417 -410.259)" fill="url(#linear-gradient-23)"/>
      <path id="Path_238" data-name="Path 238" d="M316.3,445.914l-.156.058a1.441,1.441,0,0,0-1.207-.779.753.753,0,0,0-.61.247.421.421,0,0,0-.11.279.467.467,0,0,0,.35.435h.091l.227.065.61.149a1.649,1.649,0,0,1,.831.383.285.285,0,0,1,.065.078h0a.9.9,0,0,1,.117.415v.058a.922.922,0,0,1-.428.772h0a1.512,1.512,0,0,1-.928.279,1.7,1.7,0,0,1-1.012-.312l-.091.247h-.182l-.318-1.123.182-.058a1.681,1.681,0,0,0,1.149.986,1.443,1.443,0,0,0,.253,0,.883.883,0,0,0,.72-.3.649.649,0,0,0,.162-.428.454.454,0,0,0-.266-.428l-.162-.071-.221-.058-.649-.169a1.83,1.83,0,0,1-.8-.363.824.824,0,0,1-.208-.435V445.8a.144.144,0,0,1,0-.052v-.039a.837.837,0,0,1,.337-.6,1.3,1.3,0,0,1,.785-.234,1.811,1.811,0,0,1,.928.24l.052-.175H316Z" transform="translate(-277.305 -410.174)" fill="url(#linear-gradient-27)"/>
      <path id="Path_239" data-name="Path 239" d="M321.175,445.977l-.169.058a1.233,1.233,0,0,0-1.077-.733c-.11,0-.169,0-.188.091v2.349c0,.26.045.422.143.487h0a.48.48,0,0,0,.175.045h.195v.149h-1.512v-.136h.195a.292.292,0,0,0,.279-.195,1.077,1.077,0,0,0,.039-.344V445.5c0-.11-.045-.169-.123-.188h-.1a1.162,1.162,0,0,0-.993.6l-.078.136-.162-.058.279-.863h2.836Z" transform="translate(-278.797 -410.262)" fill="url(#linear-gradient-28)"/>
      <path id="Path_240" data-name="Path 240" d="M325.629,447.746a1.516,1.516,0,0,0,.078.195,1.4,1.4,0,0,0,.058.13.441.441,0,0,0,.266.208h.143v.149h-1.4v-.13h.143a.387.387,0,0,0,.143-.052.208.208,0,0,0,.1-.169.691.691,0,0,0-.045-.188h0l-.24-.649h-1.266l-.136.409a1.046,1.046,0,0,0-.1.363.253.253,0,0,0,.123.221.578.578,0,0,0,.195.058h.117v.149h-1.3V448.3h.058a.578.578,0,0,0,.344-.188h0a3.981,3.981,0,0,0,.37-.8l.837-2.161h.461Zm-.85-.746-.558-1.473L323.675,447Z" transform="translate(-280.454 -410.273)" fill="url(#linear-gradient-29)"/>
      <path id="Path_241" data-name="Path 241" d="M331.025,445.977l-.175.058a1.233,1.233,0,0,0-1.077-.733c-.1,0-.169,0-.182.091v2.349c0,.26.052.422.143.487h0a.482.482,0,0,0,.175.045h.195v.149h-1.512v-.136h.195a.286.286,0,0,0,.279-.195,1.076,1.076,0,0,0,.039-.344V445.5c0-.11-.039-.169-.123-.188h-.091a1.162,1.162,0,0,0-1,.6l-.078.136-.162-.058.279-.863h2.842Z" transform="translate(-282.255 -410.262)" fill="url(#linear-gradient-30)"/>
      <path id="Path_242" data-name="Path 242" d="M336.2,445.993l-.156.065a1.8,1.8,0,0,0-.143-.162l-.136-.136a1.538,1.538,0,0,0-.922-.422h-.286q-.409,0-.506.156a.493.493,0,0,0-.052.253v.837h.37a.577.577,0,0,0,.454-.149h0a1.006,1.006,0,0,0,.136-.474h.169v1.467h-.156a.589.589,0,0,0-.3-.584h0a.754.754,0,0,0-.286-.045h-.363v1.032a.46.46,0,0,0,.065.292.649.649,0,0,0,.487.136,1.81,1.81,0,0,0,1.051-.279l.091-.065.084-.071a3.286,3.286,0,0,0,.435-.487l.156.071-.448,1.045h-2.855v-.188h.13a.292.292,0,0,0,.266-.175h0a1.251,1.251,0,0,0,.039-.363V445.8c0-.247-.032-.4-.11-.467a.376.376,0,0,0-.162-.071h-.169v-.149h2.8Z" transform="translate(-284.161 -410.259)" fill="url(#linear-gradient-31)"/>
    </g>
  </g>
</svg>
