<?xml version="1.0" encoding="UTF-8"?><svg id="a" xmlns="http://www.w3.org/2000/svg" xmlns:xlink="http://www.w3.org/1999/xlink" viewBox="0 0 107.72 107.72"><defs><style>.j{fill:url(#c);}.k{fill:url(#f);}.l{fill:url(#g);}.m{fill:url(#b);}.n{fill:url(#i);}.o{fill:url(#h);}.p{fill:url(#d);}.q{fill:url(#e);}</style><linearGradient id="b" x1="-2231.14" y1="-1885.93" x2="-2162.32" y2="-1884.39" gradientTransform="translate(2226.45 1911.72)" gradientUnits="userSpaceOnUse"><stop offset=".03" stop-color="#c48e2d"/><stop offset=".07" stop-color="#cd9e42"/><stop offset=".14" stop-color="#dcb764"/><stop offset=".18" stop-color="#e1c070"/><stop offset=".25" stop-color="#efda8f"/><stop offset=".27" stop-color="#f4e29a"/><stop offset=".36" stop-color="#e8ce81"/><stop offset=".44" stop-color="#ddbb69"/><stop offset=".59" stop-color="#c48e2d"/><stop offset=".75" stop-color="#f6eab1"/><stop offset=".81" stop-color="#f0dfa1"/><stop offset=".87" stop-color="#ead38e"/><stop offset=".92" stop-color="#e1c378"/><stop offset=".97" stop-color="#d6af5a"/></linearGradient><linearGradient id="c" x1="-2231.9" y1="-1851.81" x2="-2163.09" y2="-1850.27" xlink:href="#b"/><linearGradient id="d" x1="-2231.54" y1="-1867.95" x2="-2162.72" y2="-1866.4" xlink:href="#b"/><linearGradient id="e" x1="-2232.78" y1="-1812.55" x2="-2163.97" y2="-1811" xlink:href="#b"/><linearGradient id="f" x1="-2232.78" y1="-1812.81" x2="-2163.96" y2="-1811.27" xlink:href="#b"/><linearGradient id="g" x1="-2232.77" y1="-1813.09" x2="-2163.96" y2="-1811.54" xlink:href="#b"/><linearGradient id="h" x1="-2232.77" y1="-1813.31" x2="-2163.95" y2="-1811.76" xlink:href="#b"/><linearGradient id="i" x1="-2232.76" y1="-1813.49" x2="-2163.95" y2="-1811.95" xlink:href="#b"/></defs><g><path class="m" d="M52.96,5c.06-.51,2.12,23.48-4.68,33.4-5.13,7.47-36.3,9.75-36.75,9.6s30.33,3.09,38.62-5.72c9.2-9.77,2.81-37.28,2.81-37.28Z"/><path class="j" d="M50.14,83.23c-.06,.51-2.12-23.48,4.68-33.4,5.13-7.47,36.3-9.75,36.75-9.6s-30.33-3.09-38.62,5.72c-9.2,9.77-2.81,37.28-2.81,37.28Z"/><path class="p" d="M58.8,40.57c-1.25,.4-10.07,2.92-11.97,13.48h0c-.63-2.01-1.89-3.61-3.49-4.46l-.19-.1c1.25-.4,10.07-2.91,11.97-13.48l.39,.81c.64,1.32,1.54,2.43,2.6,3.23l.68,.51Z"/></g><g><path class="q" d="M35.02,96.67c-.57,.14-1.61,1.47-2.1,1.96-.48,.49-.96,.53-1.45,.04-.48-.49-1.52-1.86-2.09-2v7.43h-.63v-8.14c.67,0,1.48,.02,1.88,.6q1.56,2.24,3.12,0c.41-.58,1.22-.6,1.88-.6v8.14h-.63v-7.43Z"/><path class="k" d="M44.78,102.15c.43,.16,.79,.37,1.08,.64v-6.11c-.54,.13-1.03,.42-1.49,.85-.46,.43-.85,.98-1.19,1.64-.34,.66-.6,1.41-.79,2.25-.19,.84-.29,1.73-.29,2.68h-.63c0-.75,.06-1.47,.18-2.16,.12-.69,.29-1.34,.51-1.94,.22-.6,.48-1.15,.78-1.65,.3-.5,.64-.92,1.01-1.27,.37-.35,.77-.62,1.2-.82s.87-.29,1.33-.29v8.14h-.63v-.06c-.01-.21-.09-.4-.22-.58-.14-.18-.32-.34-.54-.47-.23-.14-.49-.24-.79-.32-.3-.08-.62-.12-.95-.12s-.63,.04-.94,.11v-.64c.15-.03,.3-.06,.45-.08,.16-.02,.32-.03,.49-.03,.51,0,.99,.08,1.42,.24Z"/><path class="l" d="M55.48,99.15c.38-.04,1.68-.68,4.39,.13l-.02,.64c-.06-.03,.06,.03,0,0v.11c0,.56-.1,1.09-.3,1.59-.2,.49-.47,.92-.8,1.29-.34,.37-.73,.66-1.19,.87-.46,.21-.94,.32-1.47,.32s-1.01-.11-1.47-.32c-.46-.21-.85-.5-1.19-.87-.34-.37-.6-.8-.8-1.29-.2-.49-.3-1.02-.3-1.59s.1-1.09,.3-1.59c.2-.49,.47-.92,.8-1.29,.34-.37,.73-.66,1.19-.87,.46-.21,.94-.32,1.47-.32,.28,0,.55,.03,.81,.1,.26,.07,.51,.16,.76,.28v.72c-.23-.15-.47-.26-.74-.34-.26-.08-.54-.13-.83-.13-.43,0-.84,.09-1.22,.27-.38,.18-.71,.43-1,.74-.28,.31-.5,.68-.67,1.1-.16,.42-.25,.86-.25,1.34s.08,.92,.25,1.34c.16,.42,.39,.78,.67,1.1,.28,.31,.61,.56,1,.74,.38,.18,.79,.27,1.22,.27s.84-.09,1.22-.27c.38-.18,.71-.43,1-.74,.28-.31,.5-.68,.67-1.1,.16-.42,.25-.86,.25-1.34,0-.06,0-.11,0-.18,0-.06,0-.12-.02-.18-.55-.19-1.14-.33-1.77-.43-.63-.1-1.27-.1-1.96-.1h0Z"/><path class="o" d="M65.7,95.96v8.14h.63v-8.14h-.63Z"/><path class="n" d="M73.05,101.37c.16,.42,.39,.78,.67,1.1,.28,.31,.61,.56,1,.74,.38,.18,.79,.27,1.22,.27,.29,0,.57-.04,.83-.12,.26-.08,.51-.19,.74-.34v.72c-.24,.12-.5,.21-.76,.27-.26,.06-.53,.09-.81,.09-.52,0-1.01-.11-1.47-.32-.46-.21-.85-.5-1.19-.87-.34-.37-.6-.8-.8-1.29s-.3-1.02-.3-1.59,.1-1.09,.3-1.59c.2-.49,.47-.92,.8-1.29,.34-.37,.73-.66,1.19-.87,.46-.21,1.27-.38,2.13-.1l.27,.58c-.32-.11-.63-.17-.94-.17-.43,0-.84,.09-1.22,.27-.38,.18-.71,.43-1,.74-.28,.31-.5,.68-.67,1.1-.16,.42-.25,.86-.25,1.34s.08,.92,.25,1.34Z"/></g></svg>