<?xml version="1.0" encoding="UTF-8"?><svg id="a" xmlns="http://www.w3.org/2000/svg" xmlns:xlink="http://www.w3.org/1999/xlink" viewBox="0 0 38 38"><defs><style>.ag{fill:url(#t);}.ah{fill:url(#r);}.ai{fill:url(#y);}.aj{fill:url(#l);}.ak{fill:url(#af);}.al{fill:url(#c);}.am{fill:url(#u);}.an{fill:url(#v);}.ao{fill:url(#a`);}.ap{fill:url(#m);}.aq{fill:url(#f);}.ar{fill:url(#ae);}.as{fill:url(#p);}.at{fill:url(#g);}.au{fill:url(#ad);}.av{fill:url(#ab);}.aw{fill:url(#b);}.ax{fill:url(#i);}.ay{fill:url(#h);}.b`{fill:url(#d);}.ba{fill:url(#e);}.bb{fill:url(#x);}.bc{fill:url(#aa);}.bd{fill:url(#s);}.be{fill:url(#n);}.bf{fill:url(#ac);}.bg{fill:url(#w);}.bh{fill:url(#j);}.bi{fill:url(#o);}.bj{fill:url(#q);}.bk{fill:url(#k);}</style><linearGradient id="b" x1="8.01" y1="16.46" x2="32.88" y2="16.46" gradientTransform="matrix(1, 0, 0, 1, 0, 0)" gradientUnits="userSpaceOnUse"><stop offset=".03" stop-color="#be8b3b"/><stop offset=".07" stop-color="#c49547"/><stop offset=".19" stop-color="#d5b269"/><stop offset=".27" stop-color="#dabb75"/><stop offset=".43" stop-color="#e8d595"/><stop offset=".6" stop-color="#f9f5bc"/><stop offset=".64" stop-color="#f6f0b5"/><stop offset=".7" stop-color="#eee2a4"/><stop offset=".78" stop-color="#e2cb88"/><stop offset=".83" stop-color="#d7b66e"/><stop offset=".96" stop-color="#be8b3b"/></linearGradient><linearGradient id="c" x1="9.97" y1="12.69" x2="30.01" y2="12.69" xlink:href="#b"/><linearGradient id="d" x1="11.8" y1="25.44" x2="14.74" y2="25.44" xlink:href="#b"/><linearGradient id="e" x1="13.57" y1="24.44" x2="13.86" y2="24.44" xlink:href="#b"/><linearGradient id="f" x1="13.21" y1="24.44" x2="13.51" y2="24.44" xlink:href="#b"/><linearGradient id="g" x1="14.97" y1="25.23" x2="15.17" y2="25.23" xlink:href="#b"/><linearGradient id="h" x1="15.25" y1="25.68" x2="15.64" y2="25.68" xlink:href="#b"/><linearGradient id="i" x1="16.99" y1="24.44" x2="17.28" y2="24.44" xlink:href="#b"/><linearGradient id="j" x1="17.34" y1="24.44" x2="17.64" y2="24.44" xlink:href="#b"/><linearGradient id="k" x1="15.82" y1="25.23" x2="21" y2="25.23" xlink:href="#b"/><linearGradient id="l" x1="22.43" y1="24.68" x2="23.21" y2="24.68" xlink:href="#b"/><linearGradient id="m" x1="24.28" y1="26.52" x2="24.57" y2="26.52" xlink:href="#b"/><linearGradient id="n" x1="24.64" y1="26.52" x2="24.93" y2="26.52" xlink:href="#b"/><linearGradient id="o" x1="21.85" y1="25.23" x2="26.78" y2="25.23" xlink:href="#b"/><linearGradient id="p" x1="25.8" y1="26.46" x2="26.09" y2="26.46" xlink:href="#b"/><linearGradient id="q" x1="27" y1="25.33" x2="29.09" y2="25.33" xlink:href="#b"/><linearGradient id="r" x1="5.89" y1="29.04" x2="8.26" y2="29.04" xlink:href="#b"/><linearGradient id="s" x1="8.14" y1="29.04" x2="10.19" y2="29.04" xlink:href="#b"/><linearGradient id="t" x1="10.33" y1="29.04" x2="12.33" y2="29.04" xlink:href="#b"/><linearGradient id="u" x1="12.46" y1="29.04" x2="13.2" y2="29.04" xlink:href="#b"/><linearGradient id="v" x1="13.44" y1="29.04" x2="15.24" y2="29.04" xlink:href="#b"/><linearGradient id="w" x1="16.07" y1="29.04" x2="18.05" y2="29.04" xlink:href="#b"/><linearGradient id="x" x1="18.04" y1="29.04" x2="19.88" y2="29.04" xlink:href="#b"/><linearGradient id="y" x1="19.72" y1="29.04" x2="21.77" y2="29.04" xlink:href="#b"/><linearGradient id="a`" x1="21.85" y1="29.04" x2="23.49" y2="29.04" xlink:href="#b"/><linearGradient id="aa" x1="24.16" y1="29.04" x2="26" y2="29.04" xlink:href="#b"/><linearGradient id="ab" x1="26.11" y1="29.04" x2="27.76" y2="29.04" xlink:href="#b"/><linearGradient id="ac" x1="27.64" y1="29.04" x2="29.53" y2="29.04" xlink:href="#b"/><linearGradient id="ad" x1="29.33" y1="29.04" x2="31.38" y2="29.04" xlink:href="#b"/><linearGradient id="ae" x1="31.19" y1="29.04" x2="33.08" y2="29.04" xlink:href="#b"/><linearGradient id="af" x1="33.16" y1="29.04" x2="35" y2="29.04" xlink:href="#b"/></defs><g><path class="aw" d="M25.41,11.28c1.35-1.73,4.35-2.21,6.14-1.08,1.06,.67,1.54,1.98,1.26,3.41-.58,2.96-3.17,4.95-6.31,4.86-.37-.01-.73,0-1.18,0,.17,.72,.28,1.4,.5,2.04,.08,.22,.41,.41,.67,.51,.3,.12,.64,.13,.98,.2-.23,.34-3.36,.39-4.14,.09,.43-1.06,0-2.1-.14-3.14-.03-.18-.28-.38-.48-.48-.48-.23-.99-.38-1.47-.6-.35-.15-.53-.1-.7,.26-.55,1.17-1.12,2.32-1.7,3.47-.11,.23-.29,.42-.49,.72-.22-.31-.41-.52-.53-.76-.89-1.76-1.77-3.54-2.66-5.3-.09-.18-.22-.37-.38-.49-.48-.36-.84-.19-.91,.4-.19,1.56-.38,3.11-.57,4.67-.09,.75,.02,.9,.75,1.03,.18,.03,.36,.07,.57,.11-.3,.43-3.36,.49-4.04,.07,.21-.08,.35-.16,.5-.18,.51-.08,.77-.39,.84-.88,.26-1.7,.52-3.41,.77-5.11,0-.05,0-.1-.02-.24-.31,.06-.61,.1-.91,.18-1.72,.48-2.89,1.79-2.99,3.32-.11,1.77,.89,3.35,2.59,4.05,1.79,.73,3.57,.46,5.34-.08,.31-.09,.62-.22,.98-.34-.03,.11-.03,.18-.05,.19-1.97,.98-4.01,1.52-6.19,.89-2.08-.61-3.44-2.48-3.42-4.59,.02-2.01,1.41-3.73,3.5-4.34,1.65-.48,3.32-.39,4.91,.13,2.04,.67,4.03,1.5,6.03,2.28,1.27,.49,2.55,.93,3.92,1.05,2.39,.21,4.77-1.19,5.62-3.41,.39-1.01,.52-2.06-.18-3.03-.57-.81-1.45-1.04-2.35-1.14-1.3-.15-2.48,.21-3.56,.94-.17,.11-.33,.22-.5,.33Zm-5.67,5.17l-2.25-.88,1.36,2.8,.89-1.92Z"/><path class="al" d="M9.97,13.55c.65-.58,1.42-.92,2.27-1.1,.87-.18,.86-.18,.99-1.05,.12-.77,.25-1.53,.4-2.29,.03-.15,.17-.28,.25-.42,.13,.1,.32,.17,.39,.3,.48,.93,.95,1.85,1.38,2.8,.22,.48,.55,.7,1.04,.86,1.17,.38,2.32,.84,3.46,1.3,.65,.26,.64,.28,.93-.33,.7-1.47,1.4-2.93,2.1-4.39,.05-.1,.08-.21,.15-.28,.11-.1,.23-.22,.37-.24,.05-.01,.19,.19,.22,.31,.12,.59,.23,1.18,.31,1.77,.23,1.57,.44,3.14,.66,4.71,.05,.39,.33,.48,.64,.52,1.45,.18,2.82,0,4.04-.88,.13-.09,.27-.18,.44-.22-.73,.88-1.64,1.45-2.77,1.66-1.53,.29-3-.01-4.41-.57-1.67-.67-3.3-1.45-4.96-2.14-1.85-.76-3.76-1.28-5.78-.9-.72,.13-1.42,.38-2.13,.58Zm12.58-.14h-.1l-.62,1.29,.97,.39-.25-1.69Z"/></g><g><path class="b`" d="M14.54,25.77c0,.13-.05,.2-.15,.2h-1.85c-.11,0-.22-.03-.31-.1-.15-.1-.22-.25-.22-.43,0-.12,.03-.22,.1-.32,.1-.15,.25-.22,.42-.22,.11,0,.23,.04,.34,.13l.11-.15c-.14-.11-.29-.16-.46-.16-.25,0-.45,.1-.59,.3-.09,.13-.14,.27-.14,.42,0,.24,.1,.44,.29,.58,.08,.05,.16,.09,.24,.11s.2,.03,.35,.03h1.71c.23,0,.35-.13,.35-.38v-1.07h-.2v1.06Z"/><path class="ba" d="M13.72,24.58s.08-.01,.1-.04,.04-.06,.04-.09c0-.04-.01-.07-.04-.1s-.06-.04-.1-.04-.07,.01-.1,.04-.04,.06-.04,.1c0,.03,.01,.07,.04,.09s.06,.04,.1,.04Z"/><path class="aq" d="M13.36,24.58s.08-.01,.1-.04,.04-.06,.04-.09c0-.04-.01-.07-.04-.1s-.06-.04-.1-.04-.07,.01-.1,.04-.04,.06-.04,.1c0,.03,.01,.07,.04,.09s.06,.04,.1,.04Z"/><polygon class="at" points="14.97 26.17 15.17 26.17 15.17 24.3 14.97 24.29 14.97 26.17"/><path class="ay" d="M15.43,26v.14c0,.18-.06,.35-.18,.51h.24c.1-.16,.14-.33,.15-.51v-1.42h-.2v1.29Z"/><path class="ax" d="M17.13,24.58s.08-.01,.1-.04,.04-.06,.04-.09c0-.04-.01-.07-.04-.1s-.06-.04-.1-.04-.07,.01-.1,.04-.04,.06-.04,.1c0,.03,.01,.07,.04,.09s.06,.04,.1,.04Z"/><path class="bh" d="M17.49,24.58s.08-.01,.1-.04,.04-.06,.04-.09c0-.04-.01-.07-.04-.1s-.06-.04-.1-.04-.07,.01-.1,.04-.04,.06-.04,.1c0,.03,.01,.07,.04,.09s.06,.04,.1,.04Z"/><path class="bk" d="M20.8,25.97h-.35c-.1,0-.15-.07-.15-.2v-1.48h-.2v1.48c0,.13-.05,.2-.15,.2h-.63l.27-.58c.06-.14,.09-.24,.09-.3,0-.12-.04-.21-.11-.28s-.18-.1-.32-.1h-.41c-.13,0-.24,.03-.32,.1s-.11,.16-.11,.28c0,.06,.03,.16,.09,.3l.27,.58h-.97s-.01,0,.01-.02l.11-.11c.07-.12,.1-.27,.1-.44,0-.2-.05-.35-.14-.46-.15-.2-.34-.3-.59-.3-.16,0-.31,.05-.44,.14-.19,.14-.28,.33-.28,.55v.07c0,.16,.04,.3,.11,.44l.09,.11s.03,.03,.01,.02h-.77v-1.67h-.2v1.86h1.43s.03,0,.05,0c.02,0,.03,0,.05,0h2.63c.11,0,.19-.03,.23-.08,.04,.05,.11,.08,.22,.08h.58v-1.86h-.2v1.67Zm-3.43,0h-.14c-.09-.01-.17-.04-.25-.1-.13-.09-.2-.25-.2-.48v-.03h0v-.03c0-.17,.07-.3,.2-.41,.09-.07,.2-.1,.31-.1,.18,0,.32,.07,.42,.22,.07,.08,.1,.18,.1,.32h0s0,.06,0,.15-.03,.18-.1,.27c-.09,.11-.21,.17-.35,.19Zm1.63,0l-.34-.73c-.03-.06-.04-.11-.04-.15,0-.06,.02-.1,.06-.13s.09-.05,.16-.05h.43c.07,0,.12,.02,.16,.05s.06,.08,.06,.13c0,.05-.01,.1-.04,.15l-.34,.73h-.1Z"/><path class="aj" d="M22.59,25.06c.11-.07,.22-.11,.34-.11h.28v-.19h-.28c-.1,0-.15-.04-.15-.13,0-.09,.05-.14,.16-.14h.22l-.11-.19h-.1c-.11,0-.19,.03-.26,.09s-.1,.14-.1,.23c0,.09,.02,.15,.06,.18-.09,.03-.16,.08-.22,.14l.16,.1Z"/><path class="ap" d="M24.43,26.38s-.07,.01-.1,.04-.04,.06-.04,.1c0,.03,.01,.07,.04,.09s.06,.04,.1,.04,.08-.01,.1-.04,.04-.06,.04-.09c0-.04-.01-.07-.04-.1s-.06-.04-.1-.04Z"/><path class="be" d="M24.78,26.38s-.07,.01-.1,.04-.04,.06-.04,.1c0,.03,.01,.07,.04,.09s.06,.04,.1,.04,.08-.01,.1-.04,.04-.06,.04-.09c0-.04-.01-.07-.04-.1s-.06-.04-.1-.04Z"/><path class="bi" d="M25.8,24.71c-.17,0-.34,.04-.49,.13-.07,.04-.14,.1-.21,.17l.14,.14c.17-.17,.36-.25,.57-.25s.4,.08,.55,.23,.23,.34,.23,.56c0,.11-.02,.2-.05,.29h-1.65c-.1,0-.15-.07-.15-.2v-1.06h-.2v1.06c0,.13-.05,.2-.15,.2h-.32v-1.67h-.2v1.67h-1.26c-.11,0-.22-.03-.31-.1-.15-.1-.22-.25-.22-.43,0-.12,.04-.23,.12-.33l-.16-.12c-.11,.14-.16,.3-.16,.45,0,.24,.1,.44,.29,.58,.08,.05,.16,.09,.24,.11s.2,.03,.35,.03h1.66c.11,0,.19-.03,.23-.08,.04,.05,.11,.08,.22,.08h1.81c.08-.15,.12-.31,.12-.48,0-.27-.1-.5-.29-.69s-.42-.28-.69-.28Z"/><path class="as" d="M25.95,26.33s-.07,.01-.1,.04-.04,.06-.04,.1c0,.03,.01,.07,.04,.09s.06,.04,.1,.04,.08-.01,.1-.04,.04-.06,.04-.09c0-.04-.01-.07-.04-.1s-.06-.04-.1-.04Z"/><path class="bj" d="M28.95,25.08c-.15-.2-.35-.3-.59-.3-.16,0-.31,.05-.44,.14-.19,.14-.29,.34-.29,.58v.07c0,.16,.03,.29,.09,.4h-.51v-1.67h-.2v1.86h.85s.04,.04,.07,.06c.13,.09,.28,.14,.44,.14,.21,0,.38-.07,.52-.21l.11-.14c.07-.12,.1-.27,.1-.44v-.06c0-.16-.05-.3-.14-.42Zm-.07,.49c0,.16-.03,.29-.1,.38-.1,.15-.25,.22-.42,.22-.11,0-.22-.03-.31-.1-.14-.1-.22-.27-.22-.5v-.03h0v-.03c0-.18,.07-.33,.21-.43,.09-.07,.2-.1,.31-.1,.18,0,.32,.07,.42,.22,.07,.09,.1,.2,.1,.32v.03h0v.03Z"/></g><g><path class="ah" d="M6.93,29.97l-.63-1.7v1.3c0,.14,.02,.23,.07,.27,.02,.02,.06,.03,.11,.03h.09v.09h-.69v-.08h.09c.08-.02,.13-.05,.15-.11v-.06l.02-.14v-1.07c0-.14-.02-.22-.06-.26-.02-.02-.05-.03-.09-.04h-.09v-.1h.64l.52,1.41,.57-1.41h.62v.09h-.07c-.08,.02-.13,.05-.15,.11-.02,.04-.02,.11-.02,.2v1.07c0,.14,.02,.23,.06,.26,.02,.02,.05,.03,.09,.04h.09v.1h-.76v-.08h.07c.08-.02,.13-.05,.15-.11h0s.02-.11,.02-.2v-1.27l-.68,1.66h-.12Z"/><path class="bd" d="M9.88,29.57s.03,.08,.04,.11c.01,.03,.02,.05,.03,.07,.03,.06,.08,.1,.15,.11h.04l.04,.02v.08h-.77v-.08h.08s.07-.03,.08-.04c.04-.02,.06-.06,.06-.1,0-.02,0-.06-.03-.1h0l-.14-.37h-.7l-.09,.23c-.03,.09-.05,.15-.05,.2,0,.05,.02,.1,.07,.13,.02,.01,.06,.02,.11,.03h.07v.1h-.73v-.08h.03c.09-.02,.15-.06,.19-.11h.01c.05-.08,.12-.22,.21-.46l.47-1.2h.25l.58,1.46Zm-.46-.41l-.31-.82-.3,.82h.61Z"/><path class="ag" d="M12.08,28.69l-.1,.03c-.05-.06-.09-.12-.14-.18s-.1-.11-.15-.16l.07,.06s0,0-.01-.01l-.05-.05c-.14-.12-.28-.17-.43-.17-.2,0-.36,.1-.48,.29-.08,.14-.13,.32-.13,.53v.03c0,.29,.08,.51,.25,.67,.12,.1,.25,.15,.41,.15h.03c.15,0,.28-.05,.39-.14,.02-.02,.03-.03,.04-.04,.06-.07,.09-.16,.09-.27,0-.11-.04-.18-.11-.22h0s-.09-.03-.15-.04v-.08h.74v.09h-.05c-.08,.02-.12,.04-.14,.07h0c-.02,.06-.03,.13-.03,.23v.49h-.13l-.09-.19s-.06,.04-.09,.06-.06,.04-.09,.05h0c-.13,.07-.27,.11-.43,.11-.27,0-.5-.09-.67-.28-.18-.18-.27-.41-.27-.69,0-.26,.08-.48,.25-.67,.15-.16,.34-.26,.56-.28,.03,0,.06,0,.09,0h.02c.19,0,.37,.06,.53,.17l.05-.13h.08l.17,.58Z"/><path class="am" d="M12.96,29.57c0,.14,.02,.22,.05,.25,.02,.02,.06,.04,.12,.05h.05v.09h-.74v-.08h.05c.08-.02,.13-.05,.15-.1,.02-.03,.03-.1,.03-.21v-1.07c0-.13-.02-.22-.05-.25-.02-.02-.06-.04-.12-.05h-.05v-.09h.74v.09h-.05c-.08,.02-.13,.05-.15,.1-.02,.03-.03,.1-.03,.21v1.07Z"/><path class="an" d="M15.18,28.79h-.09l-.13-.23v-.02h-.02l-.02-.04c-.11-.16-.25-.25-.41-.29-.03,0-.07-.01-.12-.01-.19,0-.34,.09-.46,.26-.11,.16-.16,.35-.16,.58,0,.26,.06,.46,.19,.6h0c.09,.11,.21,.18,.35,.21,.05,.01,.09,.02,.13,.02,.06,0,.13-.01,.2-.03,.1-.03,.18-.07,.25-.13l.02-.02s.04-.03,.06-.05,.04-.04,.05-.06c.01-.02,.03-.03,.04-.05,.01-.02,.03-.04,.05-.07l.12,.07c-.2,.31-.48,.47-.83,.47-.28,0-.51-.09-.7-.28-.18-.18-.27-.4-.27-.67s.09-.49,.26-.67c.12-.13,.33-.23,.64-.3l-.2,.03c.06-.02,.13-.03,.2-.03,.22,0,.41,.06,.55,.17h0l.06-.11h.09l.13,.66Z"/><path class="bg" d="M17.76,29.7l.04,.05c.06,.07,.15,.11,.25,.13v.08h-.46l-.61-.88h-.39v.48c0,.14,.02,.23,.07,.27,.02,.02,.06,.03,.11,.03h.1v.09h-.79v-.08h.07c.08-.02,.13-.05,.15-.11h0s.02-.11,.02-.2v-1.07c0-.14-.02-.22-.06-.26-.02-.02-.05-.03-.09-.04h-.09v-.1h1.11c.28,0,.46,.08,.57,.23,.04,.07,.07,.15,.07,.24,0,.15-.06,.27-.17,.36l-.03,.03s-.04,.03-.06,.04-.04,.02-.06,.03-.05,.01-.08,.02-.06,.01-.1,.02l.45,.64Zm-.71-.73c.15,0,.26-.03,.33-.09,.09-.07,.14-.17,.14-.3,0-.25-.17-.37-.52-.37-.15,0-.27,.01-.33,.04-.05,.02-.07,.06-.07,.12v.59h.46Z"/><path class="bb" d="M19.78,28.6l-.09,.04s-.05-.06-.08-.09-.05-.05-.08-.08c-.14-.14-.31-.21-.51-.23h-.16c-.15,0-.25,.02-.28,.08-.02,.03-.03,.08-.03,.14v.47h.21c.12,0,.21-.03,.25-.08h0s.06-.14,.08-.27h.09v.82h-.09c-.02-.18-.08-.28-.17-.33h0s-.1-.03-.16-.03h-.2v.58c0,.08,.01,.13,.03,.16,.04,.05,.13,.08,.27,.08,.24,0,.43-.05,.59-.16,.02-.01,.03-.02,.05-.03s.03-.03,.05-.04c.08-.07,.16-.16,.24-.27l.09,.04-.25,.58h-1.59v-.08h.07c.08-.02,.13-.05,.15-.11h0s.02-.11,.02-.2v-1.07c0-.14-.02-.22-.06-.26-.02-.02-.05-.03-.09-.04h-.09v-.1h1.56l.19,.49Z"/><path class="ai" d="M21.46,29.57s.03,.08,.04,.11c.01,.03,.02,.05,.03,.07,.03,.06,.08,.1,.15,.11h.04l.04,.02v.08h-.77v-.08h.08s.07-.03,.08-.04c.04-.02,.06-.06,.06-.1,0-.02,0-.06-.03-.1h0l-.14-.37h-.7l-.09,.23c-.03,.09-.05,.15-.05,.2,0,.05,.02,.1,.07,.13,.02,.01,.06,.02,.11,.03h.07v.1h-.73v-.08h.03c.09-.02,.15-.06,.19-.11h.01c.05-.08,.12-.22,.21-.46l.47-1.2h.25l.58,1.46Zm-.46-.41l-.31-.82-.3,.82h.61Z"/><path class="ao" d="M23.27,29.97h-1.41v-.08h.07c.08-.02,.13-.05,.15-.11h0s.02-.11,.02-.2v-1.07c0-.14-.02-.22-.06-.26-.02-.02-.05-.03-.09-.04h-.09v-.1h.78v.09h-.09c-.08,.02-.13,.05-.16,.11-.01,.04-.02,.1-.02,.2v1.13c0,.08,.01,.14,.03,.16,.04,.05,.1,.07,.2,.07,.06,0,.12,0,.18-.02,.11-.03,.22-.08,.32-.16h0s.08-.07,.11-.1c.02-.02,.05-.06,.08-.09,.03-.04,.07-.08,.1-.14l.08,.04-.22,.58Z"/><path class="bc" d="M25.9,28.6l-.09,.04s-.05-.06-.08-.09-.05-.05-.08-.08c-.14-.14-.31-.21-.51-.23h-.16c-.15,0-.25,.02-.28,.08-.02,.03-.03,.08-.03,.14v.47h.21c.12,0,.21-.03,.25-.08h0s.06-.14,.08-.27h.09v.82h-.09c-.02-.18-.08-.28-.17-.33h0s-.1-.03-.16-.03h-.2v.58c0,.08,.01,.13,.03,.16,.04,.05,.13,.08,.27,.08,.24,0,.43-.05,.59-.16,.02-.01,.03-.02,.05-.03s.03-.03,.05-.04c.08-.07,.16-.16,.24-.27l.09,.04-.25,.58h-1.59v-.08h.07c.08-.02,.13-.05,.15-.11h0s.02-.11,.02-.2v-1.07c0-.14-.02-.22-.06-.26-.02-.02-.05-.03-.09-.04h-.09v-.1h1.56l.19,.49Z"/><path class="av" d="M27.63,28.6l-.09,.03c-.19-.29-.41-.43-.67-.43-.15,0-.27,.05-.34,.14-.04,.05-.06,.1-.06,.16,0,.11,.07,.19,.2,.24h.02l.03,.02,.13,.04,.34,.08c.23,.06,.38,.13,.46,.21,.02,.02,.03,.03,.04,.04v.02h.01c.04,.06,.06,.14,.07,.23v.03c0,.17-.08,.31-.24,.43h0c-.14,.11-.31,.16-.52,.16-.22,0-.4-.06-.57-.17l-.05,.14h-.1l-.18-.63,.1-.03c.16,.32,.38,.5,.64,.55,.04,0,.09,.01,.14,.01,.17,0,.31-.06,.4-.17,.06-.07,.09-.15,.09-.24,0-.11-.05-.19-.15-.24-.02-.01-.06-.03-.09-.04s-.08-.02-.12-.03l-.37-.09c-.21-.06-.36-.12-.44-.21-.06-.07-.1-.15-.12-.24v-.08c0-.13,.07-.24,.19-.33,.11-.09,.26-.13,.44-.13,.2,0,.37,.04,.52,.13l.03-.1h.1l.17,.49Z"/><path class="bf" d="M29.53,28.59l-.09,.03c-.16-.27-.36-.41-.6-.41-.06,0-.1,.02-.1,.05v1.31c0,.15,.02,.24,.07,.27h0s.05,.02,.1,.03h.11v.09h-.84v-.08h.11c.08-.02,.13-.05,.16-.12,.01-.04,.02-.1,.02-.19v-1.25c0-.06-.02-.09-.07-.1h-.05c-.23,0-.41,.11-.56,.33l-.04,.07-.09-.03,.16-.48h1.58l.15,.48Z"/><path class="au" d="M31.08,29.57s.03,.08,.04,.11c.01,.03,.02,.05,.03,.07,.03,.06,.08,.1,.15,.11h.04l.04,.02v.08h-.77v-.08h.08s.07-.03,.08-.04c.04-.02,.06-.06,.06-.1,0-.02,0-.06-.03-.1h0l-.14-.37h-.7l-.09,.23c-.03,.09-.05,.15-.05,.2,0,.05,.02,.1,.07,.13,.02,.01,.06,.02,.11,.03h.07v.1h-.73v-.08h.03c.09-.02,.15-.06,.19-.11h.01c.05-.08,.12-.22,.21-.46l.47-1.2h.25l.58,1.46Zm-.46-.41l-.31-.82-.3,.82h.61Z"/><path class="ar" d="M33.08,28.59l-.09,.03c-.16-.27-.36-.41-.6-.41-.06,0-.1,.02-.1,.05v1.31c0,.15,.02,.24,.07,.27h0s.05,.02,.1,.03h.11v.09h-.84v-.08h.11c.08-.02,.13-.05,.16-.12,.01-.04,.02-.1,.02-.19v-1.25c0-.06-.02-.09-.07-.1h-.05c-.23,0-.41,.11-.56,.33l-.04,.07-.09-.03,.16-.48h1.58l.15,.48Z"/><path class="ak" d="M34.91,28.6l-.09,.04s-.05-.06-.08-.09-.05-.05-.08-.08c-.14-.14-.31-.21-.51-.23h-.16c-.15,0-.25,.02-.28,.08-.02,.03-.03,.08-.03,.14v.47h.21c.12,0,.21-.03,.25-.08h0s.06-.14,.08-.27h.09v.82h-.09c-.02-.18-.08-.28-.17-.33h0s-.1-.03-.16-.03h-.2v.58c0,.08,.01,.13,.03,.16,.04,.05,.13,.08,.27,.08,.24,0,.43-.05,.59-.16,.02-.01,.03-.02,.05-.03s.03-.03,.05-.04c.08-.07,.16-.16,.24-.27l.09,.04-.25,.58h-1.59v-.08h.07c.08-.02,.13-.05,.15-.11h0s.02-.11,.02-.2v-1.07c0-.14-.02-.22-.06-.26-.02-.02-.05-.03-.09-.04h-.09v-.1h1.56l.19,.49Z"/></g></svg>