<?xml version="1.0" encoding="utf-8"?>
<!-- Generator: Adobe Illustrator 23.0.3, SVG Export Plug-In . SVG Version: 6.00 Build 0)  -->
<svg version="1.1" id="a" xmlns="http://www.w3.org/2000/svg" xmlns:xlink="http://www.w3.org/1999/xlink" x="0px" y="0px"
	 viewBox="0 0 38 38" style="enable-background:new 0 0 38 38;" xml:space="preserve">
<style type="text/css">
	.st0{fill:url(#SVGID_1_);}
	.st1{fill:url(#SVGID_2_);}
	.st2{fill:url(#SVGID_3_);}
	.st3{fill:url(#SVGID_4_);}
	.st4{fill:url(#SVGID_5_);}
	.st5{fill:url(#SVGID_6_);}
	.st6{fill:url(#SVGID_7_);}
	.st7{fill:url(#SVGID_8_);}
	.st8{fill:url(#SVGID_9_);}
	.st9{fill:url(#SVGID_10_);}
	.st10{fill:url(#SVGID_11_);}
	.st11{fill:url(#SVGID_12_);}
	.st12{fill:url(#SVGID_13_);}
	.st13{fill:url(#SVGID_14_);}
	.st14{fill:url(#SVGID_15_);}
	.st15{fill:url(#SVGID_16_);}
	.st16{fill:url(#SVGID_17_);}
	.st17{fill:url(#SVGID_18_);}
	.st18{fill:url(#SVGID_19_);}
	.st19{fill:url(#SVGID_20_);}
	.st20{fill:url(#SVGID_21_);}
	.st21{fill:url(#SVGID_22_);}
	.st22{fill:url(#SVGID_23_);}
	.st23{fill:url(#SVGID_24_);}
	.st24{fill:url(#SVGID_25_);}
	.st25{fill:url(#SVGID_26_);}
	.st26{fill:url(#SVGID_27_);}
	.st27{fill:url(#SVGID_28_);}
	.st28{fill:url(#SVGID_29_);}
	.st29{fill:url(#SVGID_30_);}
	.st30{fill:url(#SVGID_31_);}
</style>
<g>
	
		<linearGradient id="SVGID_1_" gradientUnits="userSpaceOnUse" x1="8.0198" y1="23.5353" x2="32.8885" y2="23.5353" gradientTransform="matrix(1 0 0 -1 0 40)">
		<stop  offset="3.000000e-02" style="stop-color:#BE8B3B"/>
		<stop  offset="7.000000e-02" style="stop-color:#C49547"/>
		<stop  offset="0.19" style="stop-color:#D5B269"/>
		<stop  offset="0.27" style="stop-color:#DABB75"/>
		<stop  offset="0.43" style="stop-color:#E8D595"/>
		<stop  offset="0.6" style="stop-color:#F9F5BC"/>
		<stop  offset="0.64" style="stop-color:#F6F0B5"/>
		<stop  offset="0.7" style="stop-color:#EEE2A4"/>
		<stop  offset="0.78" style="stop-color:#E2CB88"/>
		<stop  offset="0.83" style="stop-color:#D7B66E"/>
		<stop  offset="0.96" style="stop-color:#BE8B3B"/>
	</linearGradient>
	<path class="st0" d="M25.4,11.3c1.4-1.7,4.4-2.2,6.1-1.1c1.1,0.7,1.5,2,1.3,3.4c-0.6,3-3.2,4.9-6.3,4.9c-0.4,0-0.7,0-1.2,0
		c0.2,0.7,0.3,1.4,0.5,2c0.1,0.2,0.4,0.4,0.7,0.5c0.3,0.1,0.6,0.1,1,0.2c-0.2,0.3-3.4,0.4-4.1,0.1c0.4-1.1,0-2.1-0.1-3.1
		c0-0.2-0.3-0.4-0.5-0.5c-0.5-0.2-1-0.4-1.5-0.6c-0.4-0.1-0.5-0.1-0.7,0.3c-0.5,1.2-1.1,2.3-1.7,3.5c-0.1,0.2-0.3,0.4-0.5,0.7
		c-0.2-0.3-0.4-0.5-0.5-0.8c-0.9-1.8-1.8-3.5-2.7-5.3c-0.1-0.2-0.2-0.4-0.4-0.5c-0.5-0.4-0.8-0.2-0.9,0.4c-0.2,1.6-0.4,3.1-0.6,4.7
		c-0.1,0.8,0,0.9,0.8,1c0.2,0,0.4,0.1,0.6,0.1c-0.3,0.4-3.4,0.5-4,0.1c0.2-0.1,0.4-0.2,0.5-0.2c0.5-0.1,0.8-0.4,0.8-0.9
		c0.3-1.7,0.5-3.4,0.8-5.1c0-0.1,0-0.1,0-0.2c-0.3,0.1-0.6,0.1-0.9,0.2c-1.7,0.5-2.9,1.8-3,3.3c-0.1,1.8,0.9,3.4,2.6,4.1
		c1.8,0.7,3.6,0.5,5.3-0.1c0.3-0.1,0.6-0.2,1-0.3c0,0.1,0,0.2,0,0.2c-2,1-4,1.5-6.2,0.9C9.4,22.5,8,20.6,8,18.5c0-2,1.4-3.7,3.5-4.3
		c1.6-0.5,3.3-0.4,4.9,0.1c2,0.7,4,1.5,6,2.3c1.3,0.5,2.5,0.9,3.9,1c2.4,0.2,4.8-1.2,5.6-3.4c0.4-1,0.5-2.1-0.2-3
		c-0.6-0.8-1.5-1-2.4-1.1c-1.3-0.1-2.5,0.2-3.6,0.9C25.7,11.1,25.6,11.2,25.4,11.3L25.4,11.3z M19.7,16.5l-2.3-0.9l1.4,2.8
		L19.7,16.5z"/>
	
		<linearGradient id="SVGID_2_" gradientUnits="userSpaceOnUse" x1="9.96" y1="27.3088" x2="30.01" y2="27.3088" gradientTransform="matrix(1 0 0 -1 0 40)">
		<stop  offset="3.000000e-02" style="stop-color:#BE8B3B"/>
		<stop  offset="7.000000e-02" style="stop-color:#C49547"/>
		<stop  offset="0.19" style="stop-color:#D5B269"/>
		<stop  offset="0.27" style="stop-color:#DABB75"/>
		<stop  offset="0.43" style="stop-color:#E8D595"/>
		<stop  offset="0.6" style="stop-color:#F9F5BC"/>
		<stop  offset="0.64" style="stop-color:#F6F0B5"/>
		<stop  offset="0.7" style="stop-color:#EEE2A4"/>
		<stop  offset="0.78" style="stop-color:#E2CB88"/>
		<stop  offset="0.83" style="stop-color:#D7B66E"/>
		<stop  offset="0.96" style="stop-color:#BE8B3B"/>
	</linearGradient>
	<path class="st1" d="M10,13.6c0.6-0.6,1.4-0.9,2.3-1.1c0.9-0.2,0.9-0.2,1-1.1c0.1-0.8,0.3-1.5,0.4-2.3c0-0.1,0.2-0.3,0.3-0.4
		C14,8.8,14.2,8.9,14.3,9c0.5,0.9,0.9,1.9,1.4,2.8c0.2,0.5,0.5,0.7,1,0.9c1.2,0.4,2.3,0.8,3.5,1.3c0.6,0.3,0.6,0.3,0.9-0.3
		c0.7-1.5,1.4-2.9,2.1-4.4c0-0.1,0.1-0.2,0.1-0.3c0.1-0.1,0.2-0.2,0.4-0.2c0,0,0.2,0.2,0.2,0.3c0.1,0.6,0.2,1.2,0.3,1.8
		c0.2,1.6,0.4,3.1,0.7,4.7c0,0.4,0.3,0.5,0.6,0.5c1.5,0.2,2.8,0,4-0.9c0.1-0.1,0.3-0.2,0.4-0.2c-0.7,0.9-1.6,1.5-2.8,1.7
		c-1.5,0.3-3,0-4.4-0.6c-1.7-0.7-3.3-1.4-5-2.1c-1.9-0.8-3.8-1.3-5.8-0.9C11.4,13.1,10.7,13.4,10,13.6L10,13.6z M22.5,13.4h-0.1
		l-0.6,1.3l1,0.4L22.5,13.4L22.5,13.4z"/>
</g>
<g>
	<linearGradient id="SVGID_3_" gradientUnits="userSpaceOnUse" x1="11.79" y1="25.435" x2="14.73" y2="25.435">
		<stop  offset="3.000000e-02" style="stop-color:#BE8B3B"/>
		<stop  offset="7.000000e-02" style="stop-color:#C49547"/>
		<stop  offset="0.19" style="stop-color:#D5B269"/>
		<stop  offset="0.27" style="stop-color:#DABB75"/>
		<stop  offset="0.43" style="stop-color:#E8D595"/>
		<stop  offset="0.6" style="stop-color:#F9F5BC"/>
		<stop  offset="0.64" style="stop-color:#F6F0B5"/>
		<stop  offset="0.7" style="stop-color:#EEE2A4"/>
		<stop  offset="0.78" style="stop-color:#E2CB88"/>
		<stop  offset="0.83" style="stop-color:#D7B66E"/>
		<stop  offset="0.96" style="stop-color:#BE8B3B"/>
	</linearGradient>
	<path class="st2" d="M14.5,25.8c0,0.1-0.1,0.2-0.1,0.2h-1.9c-0.1,0-0.2,0-0.3-0.1c-0.1-0.1-0.2-0.3-0.2-0.4c0-0.1,0-0.2,0.1-0.3
		c0.1-0.1,0.3-0.2,0.4-0.2c0.1,0,0.2,0,0.3,0.1l0.1-0.1c-0.1-0.1-0.3-0.2-0.5-0.2c-0.3,0-0.4,0.1-0.6,0.3c-0.1,0.1-0.1,0.3-0.1,0.4
		c0,0.2,0.1,0.4,0.3,0.6c0.1,0,0.2,0.1,0.2,0.1s0.2,0,0.4,0h1.7c0.2,0,0.4-0.1,0.4-0.4v-1.1h-0.2L14.5,25.8L14.5,25.8z"/>
	
		<linearGradient id="SVGID_4_" gradientUnits="userSpaceOnUse" x1="13.57" y1="15.555" x2="13.86" y2="15.555" gradientTransform="matrix(1 0 0 -1 0 40)">
		<stop  offset="3.000000e-02" style="stop-color:#BE8B3B"/>
		<stop  offset="7.000000e-02" style="stop-color:#C49547"/>
		<stop  offset="0.19" style="stop-color:#D5B269"/>
		<stop  offset="0.27" style="stop-color:#DABB75"/>
		<stop  offset="0.43" style="stop-color:#E8D595"/>
		<stop  offset="0.6" style="stop-color:#F9F5BC"/>
		<stop  offset="0.64" style="stop-color:#F6F0B5"/>
		<stop  offset="0.7" style="stop-color:#EEE2A4"/>
		<stop  offset="0.78" style="stop-color:#E2CB88"/>
		<stop  offset="0.83" style="stop-color:#D7B66E"/>
		<stop  offset="0.96" style="stop-color:#BE8B3B"/>
	</linearGradient>
	<path class="st3" d="M13.7,24.6c0,0,0.1,0,0.1,0s0-0.1,0-0.1c0,0,0-0.1,0-0.1s-0.1,0-0.1,0s-0.1,0-0.1,0s0,0.1,0,0.1
		c0,0,0,0.1,0,0.1S13.7,24.6,13.7,24.6z"/>
	
		<linearGradient id="SVGID_5_" gradientUnits="userSpaceOnUse" x1="13.21" y1="15.555" x2="13.51" y2="15.555" gradientTransform="matrix(1 0 0 -1 0 40)">
		<stop  offset="3.000000e-02" style="stop-color:#BE8B3B"/>
		<stop  offset="7.000000e-02" style="stop-color:#C49547"/>
		<stop  offset="0.19" style="stop-color:#D5B269"/>
		<stop  offset="0.27" style="stop-color:#DABB75"/>
		<stop  offset="0.43" style="stop-color:#E8D595"/>
		<stop  offset="0.6" style="stop-color:#F9F5BC"/>
		<stop  offset="0.64" style="stop-color:#F6F0B5"/>
		<stop  offset="0.7" style="stop-color:#EEE2A4"/>
		<stop  offset="0.78" style="stop-color:#E2CB88"/>
		<stop  offset="0.83" style="stop-color:#D7B66E"/>
		<stop  offset="0.96" style="stop-color:#BE8B3B"/>
	</linearGradient>
	<path class="st4" d="M13.4,24.6c0,0,0.1,0,0.1,0s0-0.1,0-0.1c0,0,0-0.1,0-0.1s-0.1,0-0.1,0s-0.1,0-0.1,0s0,0.1,0,0.1
		c0,0,0,0.1,0,0.1S13.3,24.6,13.4,24.6z"/>
	
		<linearGradient id="SVGID_6_" gradientUnits="userSpaceOnUse" x1="14.97" y1="14.77" x2="15.17" y2="14.77" gradientTransform="matrix(1 0 0 -1 0 40)">
		<stop  offset="3.000000e-02" style="stop-color:#BE8B3B"/>
		<stop  offset="7.000000e-02" style="stop-color:#C49547"/>
		<stop  offset="0.19" style="stop-color:#D5B269"/>
		<stop  offset="0.27" style="stop-color:#DABB75"/>
		<stop  offset="0.43" style="stop-color:#E8D595"/>
		<stop  offset="0.6" style="stop-color:#F9F5BC"/>
		<stop  offset="0.64" style="stop-color:#F6F0B5"/>
		<stop  offset="0.7" style="stop-color:#EEE2A4"/>
		<stop  offset="0.78" style="stop-color:#E2CB88"/>
		<stop  offset="0.83" style="stop-color:#D7B66E"/>
		<stop  offset="0.96" style="stop-color:#BE8B3B"/>
	</linearGradient>
	<polygon class="st5" points="15,26.2 15.2,26.2 15.2,24.3 15,24.3 	"/>
	
		<linearGradient id="SVGID_7_" gradientUnits="userSpaceOnUse" x1="15.25" y1="14.315" x2="15.64" y2="14.315" gradientTransform="matrix(1 0 0 -1 0 40)">
		<stop  offset="3.000000e-02" style="stop-color:#BE8B3B"/>
		<stop  offset="7.000000e-02" style="stop-color:#C49547"/>
		<stop  offset="0.19" style="stop-color:#D5B269"/>
		<stop  offset="0.27" style="stop-color:#DABB75"/>
		<stop  offset="0.43" style="stop-color:#E8D595"/>
		<stop  offset="0.6" style="stop-color:#F9F5BC"/>
		<stop  offset="0.64" style="stop-color:#F6F0B5"/>
		<stop  offset="0.7" style="stop-color:#EEE2A4"/>
		<stop  offset="0.78" style="stop-color:#E2CB88"/>
		<stop  offset="0.83" style="stop-color:#D7B66E"/>
		<stop  offset="0.96" style="stop-color:#BE8B3B"/>
	</linearGradient>
	<path class="st6" d="M15.4,26v0.1c0,0.2-0.1,0.4-0.2,0.5h0.2c0.1-0.2,0.1-0.3,0.1-0.5v-1.4h-0.2L15.4,26L15.4,26z"/>
	
		<linearGradient id="SVGID_8_" gradientUnits="userSpaceOnUse" x1="16.99" y1="15.555" x2="17.28" y2="15.555" gradientTransform="matrix(1 0 0 -1 0 40)">
		<stop  offset="3.000000e-02" style="stop-color:#BE8B3B"/>
		<stop  offset="7.000000e-02" style="stop-color:#C49547"/>
		<stop  offset="0.19" style="stop-color:#D5B269"/>
		<stop  offset="0.27" style="stop-color:#DABB75"/>
		<stop  offset="0.43" style="stop-color:#E8D595"/>
		<stop  offset="0.6" style="stop-color:#F9F5BC"/>
		<stop  offset="0.64" style="stop-color:#F6F0B5"/>
		<stop  offset="0.7" style="stop-color:#EEE2A4"/>
		<stop  offset="0.78" style="stop-color:#E2CB88"/>
		<stop  offset="0.83" style="stop-color:#D7B66E"/>
		<stop  offset="0.96" style="stop-color:#BE8B3B"/>
	</linearGradient>
	<path class="st7" d="M17.1,24.6c0,0,0.1,0,0.1,0s0-0.1,0-0.1c0,0,0-0.1,0-0.1s-0.1,0-0.1,0s-0.1,0-0.1,0s0,0.1,0,0.1
		c0,0,0,0.1,0,0.1S17.1,24.6,17.1,24.6z"/>
	
		<linearGradient id="SVGID_9_" gradientUnits="userSpaceOnUse" x1="17.34" y1="15.555" x2="17.64" y2="15.555" gradientTransform="matrix(1 0 0 -1 0 40)">
		<stop  offset="3.000000e-02" style="stop-color:#BE8B3B"/>
		<stop  offset="7.000000e-02" style="stop-color:#C49547"/>
		<stop  offset="0.19" style="stop-color:#D5B269"/>
		<stop  offset="0.27" style="stop-color:#DABB75"/>
		<stop  offset="0.43" style="stop-color:#E8D595"/>
		<stop  offset="0.6" style="stop-color:#F9F5BC"/>
		<stop  offset="0.64" style="stop-color:#F6F0B5"/>
		<stop  offset="0.7" style="stop-color:#EEE2A4"/>
		<stop  offset="0.78" style="stop-color:#E2CB88"/>
		<stop  offset="0.83" style="stop-color:#D7B66E"/>
		<stop  offset="0.96" style="stop-color:#BE8B3B"/>
	</linearGradient>
	<path class="st8" d="M17.5,24.6c0,0,0.1,0,0.1,0s0-0.1,0-0.1c0,0,0-0.1,0-0.1s-0.1,0-0.1,0s-0.1,0-0.1,0s0,0.1,0,0.1
		c0,0,0,0.1,0,0.1S17.4,24.6,17.5,24.6z"/>
	
		<linearGradient id="SVGID_10_" gradientUnits="userSpaceOnUse" x1="15.82" y1="14.775" x2="21" y2="14.775" gradientTransform="matrix(1 0 0 -1 0 40)">
		<stop  offset="3.000000e-02" style="stop-color:#BE8B3B"/>
		<stop  offset="7.000000e-02" style="stop-color:#C49547"/>
		<stop  offset="0.19" style="stop-color:#D5B269"/>
		<stop  offset="0.27" style="stop-color:#DABB75"/>
		<stop  offset="0.43" style="stop-color:#E8D595"/>
		<stop  offset="0.6" style="stop-color:#F9F5BC"/>
		<stop  offset="0.64" style="stop-color:#F6F0B5"/>
		<stop  offset="0.7" style="stop-color:#EEE2A4"/>
		<stop  offset="0.78" style="stop-color:#E2CB88"/>
		<stop  offset="0.83" style="stop-color:#D7B66E"/>
		<stop  offset="0.96" style="stop-color:#BE8B3B"/>
	</linearGradient>
	<path class="st9" d="M20.8,26h-0.4c-0.1,0-0.1-0.1-0.1-0.2v-1.5h-0.2v1.5c0,0.1,0,0.2-0.1,0.2h-0.6l0.3-0.6
		c0.1-0.1,0.1-0.2,0.1-0.3c0-0.1,0-0.2-0.1-0.3s-0.2-0.1-0.3-0.1h-0.4c-0.1,0-0.2,0-0.3,0.1s-0.1,0.2-0.1,0.3c0,0.1,0,0.2,0.1,0.3
		l0.3,0.6h-1c0,0,0,0,0,0l0.1-0.1c0.1-0.1,0.1-0.3,0.1-0.4c0-0.2,0-0.4-0.1-0.5c-0.1-0.2-0.3-0.3-0.6-0.3c-0.2,0-0.3,0-0.4,0.1
		c-0.2,0.1-0.3,0.3-0.3,0.5v0.1c0,0.2,0,0.3,0.1,0.4l0.1,0.1c0,0,0,0,0,0H16v-1.7h-0.2v1.9h1.4c0,0,0,0,0,0c0,0,0,0,0,0H20
		c0.1,0,0.2,0,0.2-0.1c0,0,0.1,0.1,0.2,0.1H21v-1.9h-0.2V26z M17.4,26h-0.1c-0.1,0-0.2,0-0.3-0.1c-0.1-0.1-0.2-0.3-0.2-0.5v0l0,0v0
		c0-0.2,0.1-0.3,0.2-0.4c0.1-0.1,0.2-0.1,0.3-0.1c0.2,0,0.3,0.1,0.4,0.2c0.1,0.1,0.1,0.2,0.1,0.3l0,0c0,0,0,0.1,0,0.1s0,0.2-0.1,0.3
		C17.6,25.9,17.5,25.9,17.4,26L17.4,26z M19,26l-0.3-0.7c0-0.1,0-0.1,0-0.1c0-0.1,0-0.1,0.1-0.1s0.1,0,0.2,0h0.4c0.1,0,0.1,0,0.2,0
		s0.1,0.1,0.1,0.1s0,0.1,0,0.1L19.1,26H19L19,26z"/>
	
		<linearGradient id="SVGID_11_" gradientUnits="userSpaceOnUse" x1="22.43" y1="15.32" x2="23.21" y2="15.32" gradientTransform="matrix(1 0 0 -1 0 40)">
		<stop  offset="3.000000e-02" style="stop-color:#BE8B3B"/>
		<stop  offset="7.000000e-02" style="stop-color:#C49547"/>
		<stop  offset="0.19" style="stop-color:#D5B269"/>
		<stop  offset="0.27" style="stop-color:#DABB75"/>
		<stop  offset="0.43" style="stop-color:#E8D595"/>
		<stop  offset="0.6" style="stop-color:#F9F5BC"/>
		<stop  offset="0.64" style="stop-color:#F6F0B5"/>
		<stop  offset="0.7" style="stop-color:#EEE2A4"/>
		<stop  offset="0.78" style="stop-color:#E2CB88"/>
		<stop  offset="0.83" style="stop-color:#D7B66E"/>
		<stop  offset="0.96" style="stop-color:#BE8B3B"/>
	</linearGradient>
	<path class="st10" d="M22.6,25.1c0.1-0.1,0.2-0.1,0.3-0.1h0.3v-0.2h-0.3c-0.1,0-0.1,0-0.1-0.1c0-0.1,0-0.1,0.2-0.1h0.2L23,24.3
		h-0.1c-0.1,0-0.2,0-0.3,0.1s-0.1,0.1-0.1,0.2s0,0.1,0.1,0.2c-0.1,0-0.2,0.1-0.2,0.1L22.6,25.1L22.6,25.1z"/>
	
		<linearGradient id="SVGID_12_" gradientUnits="userSpaceOnUse" x1="24.28" y1="13.485" x2="24.57" y2="13.485" gradientTransform="matrix(1 0 0 -1 0 40)">
		<stop  offset="3.000000e-02" style="stop-color:#BE8B3B"/>
		<stop  offset="7.000000e-02" style="stop-color:#C49547"/>
		<stop  offset="0.19" style="stop-color:#D5B269"/>
		<stop  offset="0.27" style="stop-color:#DABB75"/>
		<stop  offset="0.43" style="stop-color:#E8D595"/>
		<stop  offset="0.6" style="stop-color:#F9F5BC"/>
		<stop  offset="0.64" style="stop-color:#F6F0B5"/>
		<stop  offset="0.7" style="stop-color:#EEE2A4"/>
		<stop  offset="0.78" style="stop-color:#E2CB88"/>
		<stop  offset="0.83" style="stop-color:#D7B66E"/>
		<stop  offset="0.96" style="stop-color:#BE8B3B"/>
	</linearGradient>
	<path class="st11" d="M24.4,26.4c0,0-0.1,0-0.1,0s0,0.1,0,0.1c0,0,0,0.1,0,0.1s0.1,0,0.1,0s0.1,0,0.1,0s0-0.1,0-0.1
		c0,0,0-0.1,0-0.1S24.5,26.4,24.4,26.4z"/>
	
		<linearGradient id="SVGID_13_" gradientUnits="userSpaceOnUse" x1="24.64" y1="13.485" x2="24.93" y2="13.485" gradientTransform="matrix(1 0 0 -1 0 40)">
		<stop  offset="3.000000e-02" style="stop-color:#BE8B3B"/>
		<stop  offset="7.000000e-02" style="stop-color:#C49547"/>
		<stop  offset="0.19" style="stop-color:#D5B269"/>
		<stop  offset="0.27" style="stop-color:#DABB75"/>
		<stop  offset="0.43" style="stop-color:#E8D595"/>
		<stop  offset="0.6" style="stop-color:#F9F5BC"/>
		<stop  offset="0.64" style="stop-color:#F6F0B5"/>
		<stop  offset="0.7" style="stop-color:#EEE2A4"/>
		<stop  offset="0.78" style="stop-color:#E2CB88"/>
		<stop  offset="0.83" style="stop-color:#D7B66E"/>
		<stop  offset="0.96" style="stop-color:#BE8B3B"/>
	</linearGradient>
	<path class="st12" d="M24.8,26.4c0,0-0.1,0-0.1,0s0,0.1,0,0.1c0,0,0,0.1,0,0.1s0.1,0,0.1,0s0.1,0,0.1,0s0-0.1,0-0.1
		c0,0,0-0.1,0-0.1S24.8,26.4,24.8,26.4z"/>
	
		<linearGradient id="SVGID_14_" gradientUnits="userSpaceOnUse" x1="21.85" y1="14.76" x2="26.78" y2="14.76" gradientTransform="matrix(1 0 0 -1 0 40)">
		<stop  offset="3.000000e-02" style="stop-color:#BE8B3B"/>
		<stop  offset="7.000000e-02" style="stop-color:#C49547"/>
		<stop  offset="0.19" style="stop-color:#D5B269"/>
		<stop  offset="0.27" style="stop-color:#DABB75"/>
		<stop  offset="0.43" style="stop-color:#E8D595"/>
		<stop  offset="0.6" style="stop-color:#F9F5BC"/>
		<stop  offset="0.64" style="stop-color:#F6F0B5"/>
		<stop  offset="0.7" style="stop-color:#EEE2A4"/>
		<stop  offset="0.78" style="stop-color:#E2CB88"/>
		<stop  offset="0.83" style="stop-color:#D7B66E"/>
		<stop  offset="0.96" style="stop-color:#BE8B3B"/>
	</linearGradient>
	<path class="st13" d="M25.8,24.7c-0.2,0-0.3,0-0.5,0.1c-0.1,0-0.1,0.1-0.2,0.2l0.1,0.1c0.2-0.2,0.4-0.3,0.6-0.3s0.4,0.1,0.5,0.2
		s0.2,0.3,0.2,0.6c0,0.1,0,0.2,0,0.3h-1.6c-0.1,0-0.1-0.1-0.1-0.2v-1.1h-0.2v1.1c0,0.1,0,0.2-0.1,0.2h-0.3v-1.7h-0.2V26h-1.3
		c-0.1,0-0.2,0-0.3-0.1c-0.1-0.1-0.2-0.3-0.2-0.4c0-0.1,0-0.2,0.1-0.3L22,25c-0.1,0.1-0.2,0.3-0.2,0.5c0,0.2,0.1,0.4,0.3,0.6
		c0.1,0,0.2,0.1,0.2,0.1s0.2,0,0.4,0h1.7c0.1,0,0.2,0,0.2-0.1c0,0,0.1,0.1,0.2,0.1h1.8c0.1-0.1,0.1-0.3,0.1-0.5
		c0-0.3-0.1-0.5-0.3-0.7S26.1,24.7,25.8,24.7L25.8,24.7z"/>
	
		<linearGradient id="SVGID_15_" gradientUnits="userSpaceOnUse" x1="25.8" y1="13.535" x2="26.09" y2="13.535" gradientTransform="matrix(1 0 0 -1 0 40)">
		<stop  offset="3.000000e-02" style="stop-color:#BE8B3B"/>
		<stop  offset="7.000000e-02" style="stop-color:#C49547"/>
		<stop  offset="0.19" style="stop-color:#D5B269"/>
		<stop  offset="0.27" style="stop-color:#DABB75"/>
		<stop  offset="0.43" style="stop-color:#E8D595"/>
		<stop  offset="0.6" style="stop-color:#F9F5BC"/>
		<stop  offset="0.64" style="stop-color:#F6F0B5"/>
		<stop  offset="0.7" style="stop-color:#EEE2A4"/>
		<stop  offset="0.78" style="stop-color:#E2CB88"/>
		<stop  offset="0.83" style="stop-color:#D7B66E"/>
		<stop  offset="0.96" style="stop-color:#BE8B3B"/>
	</linearGradient>
	<path class="st14" d="M26,26.3c0,0-0.1,0-0.1,0s0,0.1,0,0.1c0,0,0,0.1,0,0.1s0.1,0,0.1,0s0.1,0,0.1,0s0-0.1,0-0.1c0,0,0-0.1,0-0.1
		S26,26.3,26,26.3z"/>
	
		<linearGradient id="SVGID_16_" gradientUnits="userSpaceOnUse" x1="27" y1="14.67" x2="29.09" y2="14.67" gradientTransform="matrix(1 0 0 -1 0 40)">
		<stop  offset="3.000000e-02" style="stop-color:#BE8B3B"/>
		<stop  offset="7.000000e-02" style="stop-color:#C49547"/>
		<stop  offset="0.19" style="stop-color:#D5B269"/>
		<stop  offset="0.27" style="stop-color:#DABB75"/>
		<stop  offset="0.43" style="stop-color:#E8D595"/>
		<stop  offset="0.6" style="stop-color:#F9F5BC"/>
		<stop  offset="0.64" style="stop-color:#F6F0B5"/>
		<stop  offset="0.7" style="stop-color:#EEE2A4"/>
		<stop  offset="0.78" style="stop-color:#E2CB88"/>
		<stop  offset="0.83" style="stop-color:#D7B66E"/>
		<stop  offset="0.96" style="stop-color:#BE8B3B"/>
	</linearGradient>
	<path class="st15" d="M29,25.1c-0.1-0.2-0.4-0.3-0.6-0.3c-0.2,0-0.3,0-0.4,0.1c-0.2,0.1-0.3,0.3-0.3,0.6v0.1c0,0.2,0,0.3,0.1,0.4
		h-0.5v-1.7H27v1.9h0.9c0,0,0,0,0.1,0.1c0.1,0.1,0.3,0.1,0.4,0.1c0.2,0,0.4-0.1,0.5-0.2L29,26c0.1-0.1,0.1-0.3,0.1-0.4v-0.1
		C29.1,25.4,29.1,25.2,29,25.1L29,25.1z M28.9,25.6c0,0.2,0,0.3-0.1,0.4c-0.1,0.1-0.3,0.2-0.4,0.2c-0.1,0-0.2,0-0.3-0.1
		c-0.1-0.1-0.2-0.3-0.2-0.5v0l0,0v0c0-0.2,0.1-0.3,0.2-0.4c0.1-0.1,0.2-0.1,0.3-0.1c0.2,0,0.3,0.1,0.4,0.2
		C28.8,25.3,28.9,25.4,28.9,25.6L28.9,25.6L28.9,25.6L28.9,25.6L28.9,25.6z"/>
</g>
<g>
	
		<linearGradient id="SVGID_17_" gradientUnits="userSpaceOnUse" x1="5.89" y1="10.965" x2="8.26" y2="10.965" gradientTransform="matrix(1 0 0 -1 0 40)">
		<stop  offset="3.000000e-02" style="stop-color:#BE8B3B"/>
		<stop  offset="7.000000e-02" style="stop-color:#C49547"/>
		<stop  offset="0.19" style="stop-color:#D5B269"/>
		<stop  offset="0.27" style="stop-color:#DABB75"/>
		<stop  offset="0.43" style="stop-color:#E8D595"/>
		<stop  offset="0.6" style="stop-color:#F9F5BC"/>
		<stop  offset="0.64" style="stop-color:#F6F0B5"/>
		<stop  offset="0.7" style="stop-color:#EEE2A4"/>
		<stop  offset="0.78" style="stop-color:#E2CB88"/>
		<stop  offset="0.83" style="stop-color:#D7B66E"/>
		<stop  offset="0.96" style="stop-color:#BE8B3B"/>
	</linearGradient>
	<path class="st16" d="M6.9,30l-0.6-1.7v1.3c0,0.1,0,0.2,0.1,0.3c0,0,0.1,0,0.1,0h0.1V30H5.9v-0.1H6c0.1,0,0.1,0,0.2-0.1v-0.1l0-0.1
		v-1.1c0-0.1,0-0.2-0.1-0.3c0,0-0.1,0-0.1,0H5.9v-0.1h0.6l0.5,1.4l0.6-1.4h0.6v0.1H8.2c-0.1,0-0.1,0-0.1,0.1c0,0,0,0.1,0,0.2v1.1
		c0,0.1,0,0.2,0.1,0.3c0,0,0.1,0,0.1,0h0.1V30H7.5v-0.1h0.1c0.1,0,0.1,0,0.2-0.1l0,0c0,0,0-0.1,0-0.2v-1.3L7.1,30
		C7.1,30,6.9,30,6.9,30z"/>
	
		<linearGradient id="SVGID_18_" gradientUnits="userSpaceOnUse" x1="8.14" y1="10.965" x2="10.19" y2="10.965" gradientTransform="matrix(1 0 0 -1 0 40)">
		<stop  offset="3.000000e-02" style="stop-color:#BE8B3B"/>
		<stop  offset="7.000000e-02" style="stop-color:#C49547"/>
		<stop  offset="0.19" style="stop-color:#D5B269"/>
		<stop  offset="0.27" style="stop-color:#DABB75"/>
		<stop  offset="0.43" style="stop-color:#E8D595"/>
		<stop  offset="0.6" style="stop-color:#F9F5BC"/>
		<stop  offset="0.64" style="stop-color:#F6F0B5"/>
		<stop  offset="0.7" style="stop-color:#EEE2A4"/>
		<stop  offset="0.78" style="stop-color:#E2CB88"/>
		<stop  offset="0.83" style="stop-color:#D7B66E"/>
		<stop  offset="0.96" style="stop-color:#BE8B3B"/>
	</linearGradient>
	<path class="st17" d="M9.9,29.6c0,0,0,0.1,0,0.1s0,0,0,0.1c0,0.1,0.1,0.1,0.1,0.1h0l0,0V30H9.4v-0.1h0.1c0,0,0.1,0,0.1,0
		c0,0,0.1-0.1,0.1-0.1c0,0,0-0.1,0-0.1l0,0l-0.1-0.4H8.8l-0.1,0.2c0,0.1-0.1,0.1-0.1,0.2c0,0,0,0.1,0.1,0.1c0,0,0.1,0,0.1,0h0.1V30
		H8.1v-0.1h0c0.1,0,0.1-0.1,0.2-0.1h0c0.1-0.1,0.1-0.2,0.2-0.5L9,28.1h0.3C9.3,28.1,9.9,29.6,9.9,29.6z M9.4,29.2l-0.3-0.8l-0.3,0.8
		C8.8,29.2,9.4,29.2,9.4,29.2z"/>
	
		<linearGradient id="SVGID_19_" gradientUnits="userSpaceOnUse" x1="10.33" y1="10.96" x2="12.33" y2="10.96" gradientTransform="matrix(1 0 0 -1 0 40)">
		<stop  offset="3.000000e-02" style="stop-color:#BE8B3B"/>
		<stop  offset="7.000000e-02" style="stop-color:#C49547"/>
		<stop  offset="0.19" style="stop-color:#D5B269"/>
		<stop  offset="0.27" style="stop-color:#DABB75"/>
		<stop  offset="0.43" style="stop-color:#E8D595"/>
		<stop  offset="0.6" style="stop-color:#F9F5BC"/>
		<stop  offset="0.64" style="stop-color:#F6F0B5"/>
		<stop  offset="0.7" style="stop-color:#EEE2A4"/>
		<stop  offset="0.78" style="stop-color:#E2CB88"/>
		<stop  offset="0.83" style="stop-color:#D7B66E"/>
		<stop  offset="0.96" style="stop-color:#BE8B3B"/>
	</linearGradient>
	<path class="st18" d="M12.1,28.7l-0.1,0c-0.1-0.1-0.1-0.1-0.1-0.2s-0.1-0.1-0.1-0.2l0.1,0.1c0,0,0,0,0,0l-0.1,0
		c-0.1-0.1-0.3-0.2-0.4-0.2c-0.2,0-0.4,0.1-0.5,0.3c-0.1,0.1-0.1,0.3-0.1,0.5v0c0,0.3,0.1,0.5,0.3,0.7c0.1,0.1,0.3,0.1,0.4,0.1h0
		c0.1,0,0.3,0,0.4-0.1c0,0,0,0,0,0c0.1-0.1,0.1-0.2,0.1-0.3s0-0.2-0.1-0.2l0,0c0,0-0.1,0-0.1,0v-0.1h0.7v0.1h-0.1
		c-0.1,0-0.1,0-0.1,0.1l0,0c0,0.1,0,0.1,0,0.2V30H12l-0.1-0.2c0,0-0.1,0-0.1,0.1s-0.1,0-0.1,0l0,0C11.6,30,11.5,30,11.3,30
		c-0.3,0-0.5-0.1-0.7-0.3c-0.2-0.2-0.3-0.4-0.3-0.7c0-0.3,0.1-0.5,0.3-0.7c0.1-0.2,0.3-0.3,0.6-0.3c0,0,0.1,0,0.1,0h0
		c0.2,0,0.4,0.1,0.5,0.2l0.1-0.1h0.1L12.1,28.7L12.1,28.7z"/>
	
		<linearGradient id="SVGID_20_" gradientUnits="userSpaceOnUse" x1="12.46" y1="10.965" x2="13.2" y2="10.965" gradientTransform="matrix(1 0 0 -1 0 40)">
		<stop  offset="3.000000e-02" style="stop-color:#BE8B3B"/>
		<stop  offset="7.000000e-02" style="stop-color:#C49547"/>
		<stop  offset="0.19" style="stop-color:#D5B269"/>
		<stop  offset="0.27" style="stop-color:#DABB75"/>
		<stop  offset="0.43" style="stop-color:#E8D595"/>
		<stop  offset="0.6" style="stop-color:#F9F5BC"/>
		<stop  offset="0.64" style="stop-color:#F6F0B5"/>
		<stop  offset="0.7" style="stop-color:#EEE2A4"/>
		<stop  offset="0.78" style="stop-color:#E2CB88"/>
		<stop  offset="0.83" style="stop-color:#D7B66E"/>
		<stop  offset="0.96" style="stop-color:#BE8B3B"/>
	</linearGradient>
	<path class="st19" d="M13,29.6c0,0.1,0,0.2,0.1,0.3c0,0,0.1,0,0.1,0h0.1V30h-0.7v-0.1h0.1c0.1,0,0.1,0,0.1-0.1c0,0,0-0.1,0-0.2
		v-1.1c0-0.1,0-0.2-0.1-0.3c0,0-0.1,0-0.1,0h-0.1v-0.1h0.7v0.1h-0.1c-0.1,0-0.1,0-0.1,0.1c0,0,0,0.1,0,0.2V29.6L13,29.6z"/>
	
		<linearGradient id="SVGID_21_" gradientUnits="userSpaceOnUse" x1="13.44" y1="10.96" x2="15.24" y2="10.96" gradientTransform="matrix(1 0 0 -1 0 40)">
		<stop  offset="3.000000e-02" style="stop-color:#BE8B3B"/>
		<stop  offset="7.000000e-02" style="stop-color:#C49547"/>
		<stop  offset="0.19" style="stop-color:#D5B269"/>
		<stop  offset="0.27" style="stop-color:#DABB75"/>
		<stop  offset="0.43" style="stop-color:#E8D595"/>
		<stop  offset="0.6" style="stop-color:#F9F5BC"/>
		<stop  offset="0.64" style="stop-color:#F6F0B5"/>
		<stop  offset="0.7" style="stop-color:#EEE2A4"/>
		<stop  offset="0.78" style="stop-color:#E2CB88"/>
		<stop  offset="0.83" style="stop-color:#D7B66E"/>
		<stop  offset="0.96" style="stop-color:#BE8B3B"/>
	</linearGradient>
	<path class="st20" d="M15.2,28.8L15.2,28.8L15,28.6v0h0l0,0c-0.1-0.2-0.3-0.3-0.4-0.3c0,0-0.1,0-0.1,0c-0.2,0-0.3,0.1-0.5,0.3
		c-0.1,0.2-0.2,0.4-0.2,0.6c0,0.3,0.1,0.5,0.2,0.6l0,0c0.1,0.1,0.2,0.2,0.4,0.2c0.1,0,0.1,0,0.1,0c0.1,0,0.1,0,0.2,0
		c0.1,0,0.2-0.1,0.3-0.1l0,0c0,0,0,0,0.1,0s0,0,0.1-0.1c0,0,0,0,0,0c0,0,0,0,0.1-0.1l0.1,0.1C15,29.8,14.8,30,14.4,30
		c-0.3,0-0.5-0.1-0.7-0.3c-0.2-0.2-0.3-0.4-0.3-0.7s0.1-0.5,0.3-0.7c0.1-0.1,0.3-0.2,0.6-0.3l-0.2,0c0.1,0,0.1,0,0.2,0
		c0.2,0,0.4,0.1,0.6,0.2l0,0l0.1-0.1H15L15.2,28.8L15.2,28.8z"/>
	
		<linearGradient id="SVGID_22_" gradientUnits="userSpaceOnUse" x1="16.07" y1="10.975" x2="18.05" y2="10.975" gradientTransform="matrix(1 0 0 -1 0 40)">
		<stop  offset="3.000000e-02" style="stop-color:#BE8B3B"/>
		<stop  offset="7.000000e-02" style="stop-color:#C49547"/>
		<stop  offset="0.19" style="stop-color:#D5B269"/>
		<stop  offset="0.27" style="stop-color:#DABB75"/>
		<stop  offset="0.43" style="stop-color:#E8D595"/>
		<stop  offset="0.6" style="stop-color:#F9F5BC"/>
		<stop  offset="0.64" style="stop-color:#F6F0B5"/>
		<stop  offset="0.7" style="stop-color:#EEE2A4"/>
		<stop  offset="0.78" style="stop-color:#E2CB88"/>
		<stop  offset="0.83" style="stop-color:#D7B66E"/>
		<stop  offset="0.96" style="stop-color:#BE8B3B"/>
	</linearGradient>
	<path class="st21" d="M17.8,29.7L17.8,29.7c0.1,0.1,0.2,0.2,0.3,0.2V30h-0.5L17,29.1h-0.4v0.5c0,0.1,0,0.2,0.1,0.3c0,0,0.1,0,0.1,0
		h0.1V30h-0.8v-0.1h0.1c0.1,0,0.1,0,0.1-0.1l0,0c0,0,0-0.1,0-0.2v-1.1c0-0.1,0-0.2-0.1-0.3c0,0,0,0-0.1,0h-0.1v-0.1h1.1
		c0.3,0,0.5,0.1,0.6,0.2c0,0.1,0.1,0.1,0.1,0.2c0,0.1-0.1,0.3-0.2,0.4l0,0c0,0,0,0-0.1,0s0,0-0.1,0s0,0-0.1,0s-0.1,0-0.1,0
		L17.8,29.7L17.8,29.7z M17.1,29c0.1,0,0.3,0,0.3-0.1c0.1-0.1,0.1-0.2,0.1-0.3c0-0.3-0.2-0.4-0.5-0.4c-0.1,0-0.3,0-0.3,0
		c0,0-0.1,0.1-0.1,0.1V29L17.1,29L17.1,29z"/>
	
		<linearGradient id="SVGID_23_" gradientUnits="userSpaceOnUse" x1="18.04" y1="10.95" x2="19.88" y2="10.95" gradientTransform="matrix(1 0 0 -1 0 40)">
		<stop  offset="3.000000e-02" style="stop-color:#BE8B3B"/>
		<stop  offset="7.000000e-02" style="stop-color:#C49547"/>
		<stop  offset="0.19" style="stop-color:#D5B269"/>
		<stop  offset="0.27" style="stop-color:#DABB75"/>
		<stop  offset="0.43" style="stop-color:#E8D595"/>
		<stop  offset="0.6" style="stop-color:#F9F5BC"/>
		<stop  offset="0.64" style="stop-color:#F6F0B5"/>
		<stop  offset="0.7" style="stop-color:#EEE2A4"/>
		<stop  offset="0.78" style="stop-color:#E2CB88"/>
		<stop  offset="0.83" style="stop-color:#D7B66E"/>
		<stop  offset="0.96" style="stop-color:#BE8B3B"/>
	</linearGradient>
	<path class="st22" d="M19.8,28.6L19.8,28.6c-0.1,0-0.1,0-0.2,0s0,0-0.1-0.1c-0.1-0.1-0.3-0.2-0.5-0.2h-0.2c-0.1,0-0.3,0-0.3,0.1
		c0,0,0,0.1,0,0.1v0.5h0.2c0.1,0,0.2,0,0.3-0.1l0,0c0,0,0.1-0.1,0.1-0.3h0.1v0.8h-0.1c0-0.2-0.1-0.3-0.2-0.3l0,0c0,0-0.1,0-0.2,0
		h-0.2v0.6c0,0.1,0,0.1,0,0.2c0,0,0.1,0.1,0.3,0.1c0.2,0,0.4,0,0.6-0.2c0,0,0,0,0,0s0,0,0,0c0.1-0.1,0.2-0.2,0.2-0.3l0.1,0L19.6,30
		H18v-0.1h0.1c0.1,0,0.1,0,0.1-0.1l0,0c0,0,0-0.1,0-0.2v-1.1c0-0.1,0-0.2-0.1-0.3c0,0,0,0-0.1,0H18v-0.1h1.6L19.8,28.6L19.8,28.6z"
		/>
	
		<linearGradient id="SVGID_24_" gradientUnits="userSpaceOnUse" x1="19.72" y1="10.965" x2="21.77" y2="10.965" gradientTransform="matrix(1 0 0 -1 0 40)">
		<stop  offset="3.000000e-02" style="stop-color:#BE8B3B"/>
		<stop  offset="7.000000e-02" style="stop-color:#C49547"/>
		<stop  offset="0.19" style="stop-color:#D5B269"/>
		<stop  offset="0.27" style="stop-color:#DABB75"/>
		<stop  offset="0.43" style="stop-color:#E8D595"/>
		<stop  offset="0.6" style="stop-color:#F9F5BC"/>
		<stop  offset="0.64" style="stop-color:#F6F0B5"/>
		<stop  offset="0.7" style="stop-color:#EEE2A4"/>
		<stop  offset="0.78" style="stop-color:#E2CB88"/>
		<stop  offset="0.83" style="stop-color:#D7B66E"/>
		<stop  offset="0.96" style="stop-color:#BE8B3B"/>
	</linearGradient>
	<path class="st23" d="M21.5,29.6c0,0,0,0.1,0,0.1s0,0,0,0.1c0,0.1,0.1,0.1,0.1,0.1h0l0,0V30H21v-0.1h0.1c0,0,0.1,0,0.1,0
		c0,0,0.1-0.1,0.1-0.1c0,0,0-0.1,0-0.1l0,0L21,29.3h-0.7l-0.1,0.2c0,0.1,0,0.1,0,0.2c0,0,0,0.1,0.1,0.1c0,0,0.1,0,0.1,0h0.1V30h-0.7
		v-0.1h0c0.1,0,0.1-0.1,0.2-0.1h0c0-0.1,0.1-0.2,0.2-0.5l0.5-1.2h0.3C20.9,28.1,21.5,29.6,21.5,29.6z M21,29.2l-0.3-0.8l-0.3,0.8
		C20.4,29.2,21,29.2,21,29.2z"/>
	
		<linearGradient id="SVGID_25_" gradientUnits="userSpaceOnUse" x1="21.85" y1="10.955" x2="23.49" y2="10.955" gradientTransform="matrix(1 0 0 -1 0 40)">
		<stop  offset="3.000000e-02" style="stop-color:#BE8B3B"/>
		<stop  offset="7.000000e-02" style="stop-color:#C49547"/>
		<stop  offset="0.19" style="stop-color:#D5B269"/>
		<stop  offset="0.27" style="stop-color:#DABB75"/>
		<stop  offset="0.43" style="stop-color:#E8D595"/>
		<stop  offset="0.6" style="stop-color:#F9F5BC"/>
		<stop  offset="0.64" style="stop-color:#F6F0B5"/>
		<stop  offset="0.7" style="stop-color:#EEE2A4"/>
		<stop  offset="0.78" style="stop-color:#E2CB88"/>
		<stop  offset="0.83" style="stop-color:#D7B66E"/>
		<stop  offset="0.96" style="stop-color:#BE8B3B"/>
	</linearGradient>
	<path class="st24" d="M23.3,30h-1.4v-0.1h0.1c0.1,0,0.1,0,0.1-0.1l0,0c0,0,0-0.1,0-0.2v-1.1c0-0.1,0-0.2-0.1-0.3c0,0,0,0-0.1,0
		h-0.1v-0.1h0.8v0.1h-0.1c-0.1,0-0.1,0-0.2,0.1c0,0,0,0.1,0,0.2v1.1c0,0.1,0,0.1,0,0.2c0,0,0.1,0.1,0.2,0.1c0.1,0,0.1,0,0.2,0
		c0.1,0,0.2-0.1,0.3-0.2l0,0c0,0,0.1-0.1,0.1-0.1c0,0,0-0.1,0.1-0.1c0,0,0.1-0.1,0.1-0.1l0.1,0L23.3,30L23.3,30z"/>
	
		<linearGradient id="SVGID_26_" gradientUnits="userSpaceOnUse" x1="24.16" y1="10.95" x2="26" y2="10.95" gradientTransform="matrix(1 0 0 -1 0 40)">
		<stop  offset="3.000000e-02" style="stop-color:#BE8B3B"/>
		<stop  offset="7.000000e-02" style="stop-color:#C49547"/>
		<stop  offset="0.19" style="stop-color:#D5B269"/>
		<stop  offset="0.27" style="stop-color:#DABB75"/>
		<stop  offset="0.43" style="stop-color:#E8D595"/>
		<stop  offset="0.6" style="stop-color:#F9F5BC"/>
		<stop  offset="0.64" style="stop-color:#F6F0B5"/>
		<stop  offset="0.7" style="stop-color:#EEE2A4"/>
		<stop  offset="0.78" style="stop-color:#E2CB88"/>
		<stop  offset="0.83" style="stop-color:#D7B66E"/>
		<stop  offset="0.96" style="stop-color:#BE8B3B"/>
	</linearGradient>
	<path class="st25" d="M25.9,28.6L25.9,28.6c-0.1,0-0.1,0-0.2,0s0,0-0.1-0.1c-0.1-0.1-0.3-0.2-0.5-0.2H25c-0.1,0-0.3,0-0.3,0.1
		c0,0,0,0.1,0,0.1v0.5h0.2c0.1,0,0.2,0,0.3-0.1l0,0c0,0,0.1-0.1,0.1-0.3h0.1v0.8h-0.1c0-0.2-0.1-0.3-0.2-0.3l0,0c0,0-0.1,0-0.2,0
		h-0.2v0.6c0,0.1,0,0.1,0,0.2c0,0,0.1,0.1,0.3,0.1c0.2,0,0.4,0,0.6-0.2c0,0,0,0,0,0s0,0,0,0c0.1-0.1,0.2-0.2,0.2-0.3l0.1,0L25.7,30
		h-1.6v-0.1h0.1c0.1,0,0.1,0,0.1-0.1l0,0c0,0,0-0.1,0-0.2v-1.1c0-0.1,0-0.2-0.1-0.3c0,0,0,0-0.1,0h-0.1v-0.1h1.6L25.9,28.6
		L25.9,28.6z"/>
	
		<linearGradient id="SVGID_27_" gradientUnits="userSpaceOnUse" x1="26.11" y1="10.965" x2="27.76" y2="10.965" gradientTransform="matrix(1 0 0 -1 0 40)">
		<stop  offset="3.000000e-02" style="stop-color:#BE8B3B"/>
		<stop  offset="7.000000e-02" style="stop-color:#C49547"/>
		<stop  offset="0.19" style="stop-color:#D5B269"/>
		<stop  offset="0.27" style="stop-color:#DABB75"/>
		<stop  offset="0.43" style="stop-color:#E8D595"/>
		<stop  offset="0.6" style="stop-color:#F9F5BC"/>
		<stop  offset="0.64" style="stop-color:#F6F0B5"/>
		<stop  offset="0.7" style="stop-color:#EEE2A4"/>
		<stop  offset="0.78" style="stop-color:#E2CB88"/>
		<stop  offset="0.83" style="stop-color:#D7B66E"/>
		<stop  offset="0.96" style="stop-color:#BE8B3B"/>
	</linearGradient>
	<path class="st26" d="M27.6,28.6L27.6,28.6c-0.3-0.3-0.5-0.4-0.8-0.4c-0.1,0-0.3,0-0.3,0.1c0,0-0.1,0.1-0.1,0.2
		c0,0.1,0.1,0.2,0.2,0.2h0l0,0l0.1,0l0.3,0.1c0.2,0.1,0.4,0.1,0.5,0.2c0,0,0,0,0,0v0h0c0,0.1,0.1,0.1,0.1,0.2v0
		c0,0.2-0.1,0.3-0.2,0.4l0,0C27.4,30,27.2,30,27,30c-0.2,0-0.4-0.1-0.6-0.2l0,0.1h-0.1l-0.2-0.6l0.1,0c0.2,0.3,0.4,0.5,0.6,0.5
		c0,0,0.1,0,0.1,0c0.2,0,0.3-0.1,0.4-0.2c0.1-0.1,0.1-0.1,0.1-0.2c0-0.1,0-0.2-0.1-0.2c0,0-0.1,0-0.1,0s-0.1,0-0.1,0l-0.4-0.1
		c-0.2-0.1-0.4-0.1-0.4-0.2c-0.1-0.1-0.1-0.1-0.1-0.2v-0.1c0-0.1,0.1-0.2,0.2-0.3c0.1-0.1,0.3-0.1,0.4-0.1c0.2,0,0.4,0,0.5,0.1
		l0-0.1h0.1L27.6,28.6L27.6,28.6z"/>
	
		<linearGradient id="SVGID_28_" gradientUnits="userSpaceOnUse" x1="27.64" y1="10.965" x2="29.53" y2="10.965" gradientTransform="matrix(1 0 0 -1 0 40)">
		<stop  offset="3.000000e-02" style="stop-color:#BE8B3B"/>
		<stop  offset="7.000000e-02" style="stop-color:#C49547"/>
		<stop  offset="0.19" style="stop-color:#D5B269"/>
		<stop  offset="0.27" style="stop-color:#DABB75"/>
		<stop  offset="0.43" style="stop-color:#E8D595"/>
		<stop  offset="0.6" style="stop-color:#F9F5BC"/>
		<stop  offset="0.64" style="stop-color:#F6F0B5"/>
		<stop  offset="0.7" style="stop-color:#EEE2A4"/>
		<stop  offset="0.78" style="stop-color:#E2CB88"/>
		<stop  offset="0.83" style="stop-color:#D7B66E"/>
		<stop  offset="0.96" style="stop-color:#BE8B3B"/>
	</linearGradient>
	<path class="st27" d="M29.5,28.6L29.5,28.6c-0.3-0.2-0.5-0.4-0.7-0.4c-0.1,0-0.1,0-0.1,0v1.3c0,0.1,0,0.2,0.1,0.3l0,0
		c0,0,0,0,0.1,0H29V30h-0.8v-0.1h0.1c0.1,0,0.1,0,0.2-0.1c0,0,0-0.1,0-0.2v-1.3c0-0.1,0-0.1-0.1-0.1h0c-0.2,0-0.4,0.1-0.6,0.3l0,0.1
		l-0.1,0l0.2-0.5h1.6L29.5,28.6L29.5,28.6z"/>
	
		<linearGradient id="SVGID_29_" gradientUnits="userSpaceOnUse" x1="29.33" y1="10.965" x2="31.38" y2="10.965" gradientTransform="matrix(1 0 0 -1 0 40)">
		<stop  offset="3.000000e-02" style="stop-color:#BE8B3B"/>
		<stop  offset="7.000000e-02" style="stop-color:#C49547"/>
		<stop  offset="0.19" style="stop-color:#D5B269"/>
		<stop  offset="0.27" style="stop-color:#DABB75"/>
		<stop  offset="0.43" style="stop-color:#E8D595"/>
		<stop  offset="0.6" style="stop-color:#F9F5BC"/>
		<stop  offset="0.64" style="stop-color:#F6F0B5"/>
		<stop  offset="0.7" style="stop-color:#EEE2A4"/>
		<stop  offset="0.78" style="stop-color:#E2CB88"/>
		<stop  offset="0.83" style="stop-color:#D7B66E"/>
		<stop  offset="0.96" style="stop-color:#BE8B3B"/>
	</linearGradient>
	<path class="st28" d="M31.1,29.6c0,0,0,0.1,0,0.1s0,0,0,0.1c0,0.1,0.1,0.1,0.1,0.1h0l0,0V30h-0.8v-0.1h0.1c0,0,0.1,0,0.1,0
		c0,0,0.1-0.1,0.1-0.1c0,0,0-0.1,0-0.1l0,0l-0.1-0.4H30l-0.1,0.2c0,0.1,0,0.1,0,0.2c0,0,0,0.1,0.1,0.1c0,0,0.1,0,0.1,0h0.1V30h-0.7
		v-0.1h0c0.1,0,0.1-0.1,0.2-0.1h0c0-0.1,0.1-0.2,0.2-0.5l0.5-1.2h0.3C30.5,28.1,31.1,29.6,31.1,29.6z M30.6,29.2l-0.3-0.8L30,29.2
		C30,29.2,30.6,29.2,30.6,29.2z"/>
	
		<linearGradient id="SVGID_30_" gradientUnits="userSpaceOnUse" x1="31.19" y1="10.965" x2="33.08" y2="10.965" gradientTransform="matrix(1 0 0 -1 0 40)">
		<stop  offset="3.000000e-02" style="stop-color:#BE8B3B"/>
		<stop  offset="7.000000e-02" style="stop-color:#C49547"/>
		<stop  offset="0.19" style="stop-color:#D5B269"/>
		<stop  offset="0.27" style="stop-color:#DABB75"/>
		<stop  offset="0.43" style="stop-color:#E8D595"/>
		<stop  offset="0.6" style="stop-color:#F9F5BC"/>
		<stop  offset="0.64" style="stop-color:#F6F0B5"/>
		<stop  offset="0.7" style="stop-color:#EEE2A4"/>
		<stop  offset="0.78" style="stop-color:#E2CB88"/>
		<stop  offset="0.83" style="stop-color:#D7B66E"/>
		<stop  offset="0.96" style="stop-color:#BE8B3B"/>
	</linearGradient>
	<path class="st29" d="M33.1,28.6L33.1,28.6c-0.3-0.2-0.5-0.4-0.7-0.4c-0.1,0-0.1,0-0.1,0v1.3c0,0.1,0,0.2,0.1,0.3l0,0
		c0,0,0,0,0.1,0h0.1V30h-0.8v-0.1h0.1c0.1,0,0.1,0,0.2-0.1c0,0,0-0.1,0-0.2v-1.3c0-0.1,0-0.1-0.1-0.1h0c-0.2,0-0.4,0.1-0.6,0.3
		l0,0.1l-0.1,0l0.2-0.5H33L33.1,28.6L33.1,28.6z"/>
	
		<linearGradient id="SVGID_31_" gradientUnits="userSpaceOnUse" x1="33.16" y1="10.95" x2="35" y2="10.95" gradientTransform="matrix(1 0 0 -1 0 40)">
		<stop  offset="3.000000e-02" style="stop-color:#BE8B3B"/>
		<stop  offset="7.000000e-02" style="stop-color:#C49547"/>
		<stop  offset="0.19" style="stop-color:#D5B269"/>
		<stop  offset="0.27" style="stop-color:#DABB75"/>
		<stop  offset="0.43" style="stop-color:#E8D595"/>
		<stop  offset="0.6" style="stop-color:#F9F5BC"/>
		<stop  offset="0.64" style="stop-color:#F6F0B5"/>
		<stop  offset="0.7" style="stop-color:#EEE2A4"/>
		<stop  offset="0.78" style="stop-color:#E2CB88"/>
		<stop  offset="0.83" style="stop-color:#D7B66E"/>
		<stop  offset="0.96" style="stop-color:#BE8B3B"/>
	</linearGradient>
	<path class="st30" d="M34.9,28.6L34.9,28.6c-0.1,0-0.1,0-0.2,0s0,0-0.1-0.1c-0.1-0.1-0.3-0.2-0.5-0.2H34c-0.2,0-0.3,0-0.3,0.1
		c0,0,0,0.1,0,0.1v0.5h0.2c0.1,0,0.2,0,0.3-0.1l0,0c0,0,0.1-0.1,0.1-0.3h0.1v0.8h-0.1c0-0.2-0.1-0.3-0.2-0.3l0,0c0,0-0.1,0-0.2,0
		h-0.2v0.6c0,0.1,0,0.1,0,0.2c0,0,0.1,0.1,0.3,0.1c0.2,0,0.4,0,0.6-0.2c0,0,0,0,0,0s0,0,0,0c0.1-0.1,0.2-0.2,0.2-0.3l0.1,0L34.8,30
		h-1.6v-0.1h0.1c0.1,0,0.1,0,0.2-0.1l0,0c0,0,0-0.1,0-0.2v-1.1c0-0.1,0-0.2-0.1-0.3c0,0,0,0-0.1,0h-0.1v-0.1h1.6L34.9,28.6
		L34.9,28.6z"/>
</g>
</svg>
