<?xml version="1.0" encoding="UTF-8"?><svg id="a" xmlns="http://www.w3.org/2000/svg" xmlns:xlink="http://www.w3.org/1999/xlink" viewBox="0 0 38 38"><defs><style>.m{fill:url(#l);}.n{fill:url(#c);}.o{fill:url(#f);}.p{fill:url(#g);}.q{fill:url(#b);}.r{fill:url(#i);}.s{fill:url(#h);}.t{fill:url(#d);}.u{fill:url(#e);}.v{fill:url(#j);}.w{fill:url(#k);}</style><linearGradient id="b" x1="11.74" y1="15.76" x2="27.26" y2="15.76" gradientTransform="matrix(1, 0, 0, 1, 0, 0)" gradientUnits="userSpaceOnUse"><stop offset=".03" stop-color="#be8b3b"/><stop offset=".07" stop-color="#c49547"/><stop offset=".19" stop-color="#d5b269"/><stop offset=".27" stop-color="#dabb75"/><stop offset=".43" stop-color="#e8d595"/><stop offset=".6" stop-color="#f9f5bc"/><stop offset=".64" stop-color="#f6f0b5"/><stop offset=".7" stop-color="#eee2a4"/><stop offset=".78" stop-color="#e2cb88"/><stop offset=".83" stop-color="#d7b66e"/><stop offset=".96" stop-color="#be8b3b"/></linearGradient><linearGradient id="c" x1="3.58" y1="30.81" x2="6.11" y2="30.81" xlink:href="#b"/><linearGradient id="d" x1="6.69" y1="30.81" x2="9.12" y2="30.81" xlink:href="#b"/><linearGradient id="e" x1="9.61" y1="30.81" x2="12.43" y2="30.81" xlink:href="#b"/><linearGradient id="f" x1="13.04" y1="30.81" x2="15.79" y2="30.81" xlink:href="#b"/><linearGradient id="g" x1="16.38" y1="30.81" x2="17.51" y2="30.81" xlink:href="#b"/><linearGradient id="h" x1="17.71" y1="30.81" x2="20.85" y2="30.81" xlink:href="#b"/><linearGradient id="i" x1="21.31" y1="30.81" x2="23.81" y2="30.81" xlink:href="#b"/><linearGradient id="j" x1="25.59" y1="30.81" x2="28.57" y2="30.81" xlink:href="#b"/><linearGradient id="k" x1="29.15" y1="30.81" x2="32.06" y2="30.81" xlink:href="#b"/><linearGradient id="l" x1="32.61" y1="30.81" x2="35.42" y2="30.81" xlink:href="#b"/></defs><path class="q" d="M11.74,6V25.52h15.52V6H11.74Zm8.89,4.71h4.96v1.59h-4.96v-1.59Zm-7.43-3.21h7.17v6.97h-1.73v-3.26h0v-1.97h0v-.15h-5.44v-1.59Zm12.61,16.52H13.41v-1.59h4.98v.03h.25v-1.97h0v-3.44h1.73v5.41h.25v-.03h5.19v1.59Zm-12.39-3.21v-1.59h4.98v1.59h-4.98Zm12.39,0h-5.19v-1.59h3.46v-2.67H13.2v-5.85h5.2v1.59h-3.46v2.67h10.87v5.85Z"/><g><path class="n" d="M5.91,30.14l-.13,.05c-.29-.44-.63-.66-1.03-.66-.23,0-.41,.07-.52,.21-.06,.07-.09,.15-.09,.24,0,.16,.1,.29,.3,.37,.01,0,.02,.01,.04,.01h.04l.19,.07,.52,.13c.35,.08,.59,.19,.71,.33,.03,.03,.05,.05,.06,.06v.03h.02c.06,.09,.09,.21,.1,.36v.05c0,.26-.12,.48-.36,.66h0c-.22,.16-.48,.24-.79,.24-.33,0-.62-.09-.87-.26l-.08,.21h-.16l-.27-.96,.16-.05c.25,.48,.58,.76,.98,.84,.06,.01,.13,.02,.21,.02,.27,0,.47-.08,.62-.26,.09-.1,.14-.23,.14-.37,0-.16-.08-.29-.23-.36-.04-.02-.08-.04-.14-.06-.05-.02-.12-.04-.19-.05l-.56-.14c-.33-.08-.55-.19-.68-.31-.1-.1-.16-.22-.18-.37v-.12c.01-.2,.11-.37,.28-.51,.17-.13,.4-.2,.67-.2,.3,0,.56,.07,.79,.2l.05-.15h.15l.26,.76Z"/><path class="t" d="M7.48,31.63c0,.22,.04,.36,.12,.41,.04,.02,.09,.04,.16,.04h.16v.14h-1.22v-.13h.11c.12-.03,.2-.08,.23-.16h0c.02-.07,.03-.17,.03-.31v-1.64c0-.21-.03-.34-.1-.4-.04-.03-.08-.05-.14-.06h-.04l-.11-.02v-.13h1.39c.43,0,.74,.12,.91,.36,.09,.13,.13,.27,.13,.43,0,.23-.08,.43-.24,.59h0l-.06,.05s-.04,.03-.05,.04c-.17,.11-.4,.16-.69,.16h-.59v.61Zm.52-.79c.23,0,.41-.06,.52-.19h0c.11-.12,.16-.27,.16-.45s-.05-.33-.16-.45c-.11-.13-.31-.19-.58-.19-.23,0-.38,.03-.43,.08-.03,.04-.05,.1-.05,.19v1.01h.52Z"/><path class="u" d="M12.29,30.14l-.13,.06c-.04-.05-.08-.1-.12-.14-.04-.04-.08-.08-.12-.12-.22-.21-.48-.33-.79-.36h-.25c-.23-.01-.38,.03-.43,.12-.03,.05-.04,.12-.04,.22v.71h.32c.19,0,.32-.04,.39-.13h0c.05-.07,.09-.21,.12-.41h.14v1.25h-.14c-.03-.27-.12-.44-.26-.5h0c-.07-.03-.15-.04-.25-.04h-.31v.88c0,.12,.02,.2,.05,.25,.07,.08,.21,.12,.42,.12,.36,0,.66-.08,.9-.24,.03-.02,.05-.03,.08-.05s.05-.04,.08-.06c.12-.11,.24-.25,.37-.41l.13,.06-.38,.89h-2.44v-.13h.11c.12-.03,.2-.08,.23-.16h0c.02-.07,.03-.17,.03-.31v-1.64c0-.21-.03-.34-.1-.4-.04-.03-.08-.05-.14-.06h-.04l-.11-.02v-.13h2.39l.29,.75Z"/><path class="o" d="M15.7,30.43h-.13l-.2-.35-.02-.03h0l-.04-.06c-.17-.24-.38-.38-.63-.44-.05-.01-.11-.02-.18-.02-.29,0-.53,.13-.71,.4-.17,.24-.25,.54-.25,.89,0,.39,.1,.7,.3,.92h0c.14,.16,.32,.27,.53,.32,.07,.02,.14,.02,.21,.02,.09,0,.19-.02,.3-.05,.15-.05,.28-.11,.39-.2l.03-.02s.06-.05,.09-.08c.03-.03,.06-.05,.08-.08,.02-.02,.04-.05,.07-.08,.02-.03,.05-.07,.07-.1l.18,.1c-.31,.48-.73,.72-1.28,.72-.43,0-.78-.14-1.07-.43-.27-.27-.41-.62-.41-1.03s.13-.75,.39-1.03c.18-.2,.51-.35,.98-.46l-.31,.04c.1-.03,.2-.04,.31-.04,.34,0,.62,.09,.85,.26h.01l.09-.17h.14l.2,1.01Z"/><path class="p" d="M17.15,31.63c0,.21,.03,.34,.08,.39,.04,.03,.1,.05,.19,.07h.08v.14h-1.13v-.13h.08c.12-.03,.2-.08,.24-.15,.03-.05,.04-.16,.04-.32v-1.64c0-.21-.03-.33-.08-.39-.03-.03-.1-.06-.19-.07h-.08v-.14h1.13v.13h-.08c-.12,.03-.2,.08-.23,.15-.03,.05-.04,.16-.04,.32v1.64Z"/><path class="s" d="M20.37,31.62c.03,.07,.05,.12,.07,.17,.02,.05,.04,.08,.05,.11,.05,.09,.13,.15,.23,.18h0s.03,0,.05,.01h.07v.14h-1.17v-.13l.12-.02c.06,0,.1-.02,.12-.04,.06-.04,.09-.08,.09-.15,0-.04-.01-.09-.04-.16v-.02l-.22-.54h-1.08l-.13,.36c-.05,.13-.08,.24-.08,.31,0,.08,.04,.15,.1,.19,.04,.02,.09,.04,.17,.05l.1,.02v.13h-1.12v-.13h.05c.13-.03,.23-.09,.3-.17l.02-.02c.07-.09,.18-.32,.31-.68l.72-1.84h.39l.89,2.24Zm-.7-.63l-.48-1.26-.46,1.26h.94Z"/><path class="r" d="M23.47,32.23h-2.16v-.13h.11c.12-.03,.2-.08,.23-.16h0c.02-.07,.03-.17,.03-.31v-1.64c0-.21-.03-.34-.1-.4-.04-.03-.08-.05-.14-.06h-.04l-.11-.02v-.13h1.2v.13h-.13c-.12,.02-.2,.08-.24,.17-.02,.06-.03,.16-.03,.3v1.73c0,.13,.02,.21,.05,.25,.05,.07,.16,.1,.31,.1,.09,0,.18-.01,.28-.04,.17-.04,.34-.13,.49-.24h.01c.07-.06,.12-.11,.16-.16,.04-.04,.08-.08,.13-.14,.05-.06,.1-.13,.16-.21l.12,.06-.33,.89Z"/><path class="v" d="M28.17,29.77c.27,.28,.4,.63,.4,1.05,0,.36-.1,.67-.31,.92-.22,.27-.51,.44-.86,.51-.06,.01-.11,.02-.17,.03-.05,0-.11,0-.16,0-.42,0-.78-.14-1.06-.43-.28-.28-.43-.64-.43-1.06,0-.4,.14-.74,.42-1.03,.28-.28,.63-.43,1.04-.44h.04c.44,0,.8,.15,1.08,.44Zm-1.09-.24c-.35,0-.61,.15-.8,.44h0c-.13,.23-.2,.5-.2,.83,0,.48,.13,.84,.4,1.07,.17,.14,.37,.21,.6,.21,.35,0,.62-.15,.8-.44,.13-.21,.2-.48,.2-.8,0-.51-.14-.88-.41-1.11h-.02c-.16-.14-.35-.2-.57-.2Z"/><path class="w" d="M29.76,31.63c0,.22,.04,.36,.11,.41,.03,.02,.09,.04,.16,.05h.15v.14h-1.03v-.13h.1c.13-.03,.2-.08,.23-.16h0c.02-.07,.04-.17,.04-.31v-1.64c0-.21-.03-.34-.1-.4-.03-.03-.08-.05-.14-.06h-.04l-.1-.02v-.13h.93l1.36,2.25v-1.65c0-.22-.04-.36-.11-.41h0s-.09-.04-.16-.05h-.15v-.14h1.03v.13h-.11c-.12,.03-.2,.08-.23,.16-.03,.06-.04,.16-.04,.31v2.24h-.37l-1.55-2.53v1.93Z"/><path class="m" d="M35.28,30.14l-.13,.06c-.04-.05-.08-.1-.12-.14-.04-.04-.08-.08-.12-.12-.22-.21-.48-.33-.79-.36h-.25c-.23-.01-.38,.03-.43,.12-.03,.05-.04,.12-.04,.22v.71h.32c.19,0,.32-.04,.39-.13h0c.05-.07,.09-.21,.12-.41h.14v1.25h-.14c-.03-.27-.12-.44-.26-.5h0c-.07-.03-.15-.04-.25-.04h-.31v.88c0,.12,.02,.2,.05,.25,.07,.08,.21,.12,.42,.12,.36,0,.66-.08,.9-.24,.03-.02,.05-.03,.08-.05s.05-.04,.08-.06c.12-.11,.24-.25,.37-.41l.13,.06-.38,.89h-2.44v-.13h.11c.12-.03,.2-.08,.23-.16h0c.02-.07,.03-.17,.03-.31v-1.64c0-.21-.03-.34-.1-.4-.04-.03-.08-.05-.14-.06h-.04l-.11-.02v-.13h2.39l.29,.75Z"/></g></svg>